<svg xmlns="http://www.w3.org/2000/svg" xmlns:xlink="http://www.w3.org/1999/xlink" width="500" zoomAndPan="magnify" viewBox="0 0 375 374.999991" height="500" preserveAspectRatio="xMidYMid meet" version="1.0"><defs><g/><clipPath id="7d46d76670"><path d="M 110 120.421875 L 178.234375 120.421875 L 178.234375 163 L 110 163 Z M 110 120.421875 " clip-rule="nonzero"/></clipPath><clipPath id="57cc52ebf7"><path d="M 57.484375 120.421875 L 178 120.421875 L 178 235.171875 L 57.484375 235.171875 Z M 57.484375 120.421875 " clip-rule="nonzero"/></clipPath><clipPath id="c08249156b"><path d="M 66.859375 154.109375 L 139.179688 154.109375 L 139.179688 231.011719 L 66.859375 231.011719 Z M 66.859375 154.109375 " clip-rule="nonzero"/></clipPath><clipPath id="adc49481fa"><path d="M 98.820312 194.9375 C 98.523438 194.964844 98.414062 195.09375 98.53125 195.34375 L 98.589844 195.398438 C 98.75 195.472656 98.824219 195.425781 99.039062 195.386719 L 99.289062 195.347656 C 99.515625 195.28125 99.398438 195.445312 99.460938 195.226562 L 99.460938 195.167969 L 99.402344 195.050781 C 99.351562 195.050781 99.28125 195.054688 99.234375 195.046875 C 99.117188 195.027344 99.175781 195.03125 99.117188 194.996094 L 98.878906 194.992188 Z M 93.894531 193.785156 C 93.835938 193.582031 93.648438 193.640625 93.085938 193.496094 C 92.585938 193.367188 92.878906 193.164062 92.328125 193.148438 L 92.195312 193.09375 L 92.097656 193.089844 L 92.039062 193.039062 C 91.816406 192.890625 91.890625 192.800781 91.699219 192.683594 C 91.578125 192.609375 91.265625 192.554688 91.113281 192.515625 L 91.054688 192.460938 C 90.875 192.421875 90.882812 192.390625 90.707031 192.34375 L 90.644531 192.289062 C 90.390625 192.230469 90.203125 192.054688 89.996094 192.015625 C 89.84375 191.984375 89.703125 192.015625 89.554688 191.992188 C 89.324219 191.964844 89.398438 191.90625 89.140625 191.886719 C 88.964844 191.871094 88.945312 191.890625 88.789062 191.886719 L 88.542969 191.828125 L 88.453125 191.828125 L 88.386719 191.882812 C 88.242188 191.921875 88.246094 191.910156 88.09375 191.941406 C 87.828125 191.996094 88.011719 191.9375 87.800781 192.054688 C 87.621094 192.152344 87.457031 192.195312 87.335938 192.347656 L 87.285156 192.402344 C 87.15625 192.675781 87.214844 192.988281 87.6875 192.691406 L 87.722656 192.667969 L 88.273438 192.347656 L 88.328125 192.285156 C 88.726562 192.203125 88.535156 192.175781 88.808594 192.382812 C 89.207031 192.6875 88.925781 192.265625 89.941406 192.761719 C 90.15625 192.867188 90.164062 192.917969 90.53125 192.925781 C 90.582031 192.925781 90.652344 192.921875 90.699219 192.929688 C 90.8125 192.945312 90.765625 192.949219 90.820312 192.980469 C 91.234375 193.199219 91.027344 193.269531 91.316406 193.410156 C 91.441406 193.46875 91.503906 193.457031 91.652344 193.535156 C 91.808594 193.617188 91.792969 193.644531 91.921875 193.730469 C 91.828125 193.871094 91.382812 194.234375 91.964844 194.246094 L 92.039062 194.191406 C 92.253906 193.996094 92.792969 194.074219 93.242188 194.074219 C 93.292969 194.042969 93.152344 194.015625 93.425781 194.023438 C 93.664062 194.027344 93.476562 193.996094 93.550781 194.074219 L 93.78125 194.074219 L 93.835938 194.019531 L 93.894531 193.902344 Z M 96.921875 194.40625 C 96.777344 194.265625 96.824219 194.242188 96.621094 194.191406 L 96.515625 194.132812 L 96.332031 194.132812 C 96.320312 194.144531 96.199219 194.324219 96.199219 194.132812 C 95.761719 194.089844 96.074219 193.933594 95.480469 194.097656 C 95.136719 194.191406 94.945312 194.046875 94.648438 194.011719 L 94.589844 194.011719 C 94.480469 194.042969 94.496094 194.027344 94.414062 194.074219 C 94.429688 194.703125 94.761719 194.171875 94.878906 194.585938 L 94.933594 194.648438 L 94.9375 194.765625 L 94.9375 194.851562 C 94.753906 195.015625 94.242188 194.9375 94.011719 194.878906 L 93.894531 194.878906 C 93.796875 194.953125 93.683594 195.085938 93.824219 195.226562 C 93.921875 195.324219 94.1875 195.289062 94.355469 195.285156 L 95.398438 195.34375 L 95.398438 195.515625 C 95.449219 195.699219 95.605469 195.804688 95.828125 195.714844 C 96.035156 195.628906 96.007812 195.464844 96.097656 195.285156 C 96.925781 195.285156 96.492188 195.167969 97.144531 195.167969 L 97.199219 195.113281 C 97.246094 195.136719 97.246094 195.132812 97.3125 195.175781 C 97.34375 195.195312 97.441406 195.269531 97.449219 195.273438 C 97.632812 195.382812 97.601562 195.390625 97.722656 195.226562 L 97.722656 195.054688 C 97.636719 194.929688 97.621094 194.902344 97.546875 194.761719 L 97.488281 194.707031 C 97.371094 194.648438 97.425781 194.667969 97.257812 194.644531 L 97.207031 194.59375 C 97.023438 194.503906 97.070312 194.546875 96.921875 194.40625 Z M 133.140625 179.847656 L 132.679688 179.847656 C 132.621094 179.882812 132.664062 179.871094 132.5625 179.898438 C 132.542969 179.90625 132.484375 179.902344 132.449219 179.902344 C 132.21875 179.910156 131.945312 180.007812 131.769531 180.09375 C 131.53125 180.214844 131.441406 180.359375 131.179688 180.421875 L 131.117188 180.480469 C 130.925781 180.480469 130.851562 180.496094 130.6875 180.445312 C 130.445312 180.375 130.585938 180.367188 130.363281 180.304688 L 130.304688 180.25 C 130.046875 180.191406 129.941406 180.1875 129.726562 180.082031 L 129.667969 180.019531 L 129.605469 179.964844 C 129.355469 179.839844 129.214844 179.875 129.144531 180.136719 L 129.144531 180.59375 L 129.085938 180.652344 C 129.039062 180.832031 129.035156 180.785156 128.902344 180.875 C 128.78125 180.960938 128.789062 180.933594 128.667969 181.042969 C 128.515625 181.175781 128.382812 181.300781 128.273438 181.460938 L 128.21875 181.515625 C 128.066406 181.742188 127.867188 182.125 127.871094 182.496094 L 127.871094 183.074219 L 127.867188 183.359375 C 127.679688 183.410156 127.667969 183.46875 127.535156 183.605469 C 127.410156 183.730469 127.324219 183.796875 127.230469 183.9375 L 127.171875 183.996094 L 126.996094 184.226562 L 126.941406 184.28125 C 126.855469 184.410156 126.746094 184.546875 126.648438 184.6875 L 126.59375 184.761719 C 126.457031 184.972656 126.355469 185.167969 126.214844 185.402344 C 126.058594 185.65625 125.925781 185.84375 125.785156 186.066406 L 125.722656 186.125 C 125.5625 186.363281 125.285156 186.605469 125.144531 186.816406 C 125.144531 186.90625 125.171875 186.886719 125.085938 186.886719 C 125.011719 186.980469 124.957031 187.023438 124.871094 187.121094 C 124.792969 187.210938 124.742188 187.300781 124.679688 187.390625 L 124.621094 187.449219 C 124.558594 187.566406 124.542969 187.585938 124.507812 187.738281 L 124.449219 187.796875 C 124.390625 188.035156 124.292969 188.34375 124.273438 188.605469 C 124.246094 188.972656 124.363281 189.164062 124.390625 189.46875 L 124.449219 189.523438 C 124.507812 189.769531 124.667969 190.03125 124.796875 190.210938 L 124.855469 190.273438 L 124.855469 190.328125 L 124.914062 190.386719 C 124.964844 190.609375 125.023438 190.644531 125.027344 190.914062 C 125.085938 190.996094 125.152344 191.089844 125.027344 191.1875 C 125.027344 191.507812 124.933594 191.664062 124.914062 191.941406 L 124.855469 192 L 124.855469 192.058594 L 124.796875 192.117188 C 124.644531 192.332031 124.472656 192.351562 124.449219 192.632812 L 124.449219 192.808594 C 124.472656 193.09375 124.648438 193.105469 124.796875 193.324219 C 124.738281 193.539062 124.738281 193.398438 124.679688 193.613281 L 124.621094 193.671875 C 124.578125 194.210938 124.523438 194.246094 124.898438 194.609375 C 125.136719 194.839844 125.335938 195.046875 125.492188 195.34375 L 125.554688 195.398438 C 125.679688 195.652344 125.757812 195.769531 125.921875 196.011719 C 126.003906 196.132812 126.054688 196.21875 126.128906 196.320312 C 126.21875 196.441406 126.28125 196.484375 126.359375 196.605469 L 126.425781 196.664062 L 126.476562 196.71875 L 126.535156 196.785156 L 126.59375 196.839844 L 126.65625 196.894531 L 126.714844 196.949219 L 126.769531 197.015625 L 126.824219 197.070312 L 126.886719 197.121094 L 126.941406 197.183594 L 127 197.242188 C 127.179688 197.363281 127.398438 197.5625 127.578125 197.703125 C 127.789062 197.863281 127.949219 198.039062 128.144531 198.234375 C 128.246094 198.335938 128.308594 198.394531 128.40625 198.492188 C 128.96875 199.074219 128.566406 198.992188 129.488281 198.914062 L 129.609375 198.855469 C 129.914062 198.855469 130.144531 198.761719 130.421875 198.742188 C 130.71875 198.71875 131.101562 198.738281 131.40625 198.738281 C 131.460938 198.707031 131.425781 198.714844 131.527344 198.6875 C 131.542969 198.683594 131.605469 198.683594 131.636719 198.683594 L 131.859375 198.683594 C 131.949219 198.628906 131.78125 198.683594 131.988281 198.625 C 132.003906 198.621094 132.070312 198.625 132.101562 198.625 C 132.375 198.621094 132.480469 198.53125 132.722656 198.507812 C 132.722656 198.429688 132.707031 198.449219 132.796875 198.449219 C 133.007812 198.433594 133.074219 198.378906 133.257812 198.335938 L 133.320312 198.277344 C 133.746094 198.183594 133.9375 198.019531 134.363281 198.222656 L 134.476562 198.335938 C 134.632812 198.417969 134.644531 198.445312 134.882812 198.449219 C 134.972656 198.449219 134.957031 198.429688 134.957031 198.507812 C 135.183594 198.570312 135.320312 198.6875 135.429688 198.886719 C 135.566406 199.136719 135.523438 199.371094 135.523438 199.71875 L 135.464844 199.78125 C 135.414062 199.992188 135.367188 199.9375 135.347656 200.179688 L 135.289062 200.238281 L 135.289062 200.351562 L 135.230469 200.414062 C 135.230469 200.699219 135.183594 200.726562 135.175781 200.933594 C 135.171875 201.160156 135.230469 201.207031 135.230469 201.503906 L 135.289062 201.5625 L 135.289062 201.683594 L 135.347656 201.792969 L 135.40625 202.015625 L 135.464844 202.082031 L 135.636719 202.652344 L 135.695312 202.714844 L 135.695312 202.863281 L 135.75 202.945312 C 135.78125 203.222656 135.871094 203.308594 135.871094 203.632812 L 135.925781 203.695312 L 135.929688 203.902344 C 135.964844 203.972656 135.9375 203.839844 135.980469 204.039062 C 135.988281 204.078125 135.984375 204.167969 135.984375 204.210938 L 135.988281 205.078125 C 135.984375 205.160156 135.988281 205.152344 135.972656 205.230469 L 135.949219 205.269531 C 135.949219 205.261719 135.9375 205.292969 135.929688 205.304688 L 135.9375 205.480469 L 135.871094 205.582031 C 135.851562 205.804688 135.800781 205.859375 135.75 206.054688 L 135.695312 206.117188 C 135.648438 206.308594 135.550781 206.46875 135.464844 206.632812 C 135.464844 206.714844 135.488281 206.699219 135.40625 206.699219 C 135.257812 206.945312 134.957031 207.539062 134.882812 207.839844 L 134.828125 207.894531 C 134.78125 208.085938 134.726562 208.148438 134.710938 208.359375 C 134.710938 208.445312 134.734375 208.429688 134.652344 208.429688 C 134.597656 208.644531 134.5 208.929688 134.476562 209.164062 L 134.421875 209.28125 C 134.410156 209.703125 134.246094 210.03125 134.246094 210.546875 C 134.246094 210.789062 134.230469 210.679688 134.1875 210.734375 C 134.1875 211.125 134.132812 211.300781 134.128906 211.660156 C 137.34375 206.046875 139.179688 199.554688 139.179688 192.632812 C 139.179688 189.5 138.804688 186.453125 138.09375 183.535156 C 138.078125 183.542969 138.066406 183.554688 138.046875 183.566406 C 138.035156 183.574219 137.78125 183.6875 137.761719 183.695312 C 137.519531 183.792969 137.496094 183.714844 137.261719 183.589844 L 137.199219 183.535156 C 137.039062 183.421875 136.960938 183.304688 136.804688 183.179688 C 136.648438 183.054688 136.496094 182.953125 136.335938 182.839844 L 136.277344 182.785156 C 135.929688 182.605469 135.742188 182.34375 135.523438 182.042969 C 135.4375 182.042969 135.457031 182.0625 135.457031 181.976562 C 135.359375 181.769531 135.277344 181.5 135.175781 181.289062 L 135.113281 181.230469 C 135.035156 180.929688 134.6875 180.574219 134.464844 180.382812 C 134.214844 180.171875 133.773438 179.949219 133.375 179.898438 C 133.296875 179.898438 133.292969 179.898438 133.214844 179.886719 C 133.207031 179.882812 133.183594 179.882812 133.175781 179.867188 C 133.167969 179.851562 133.152344 179.855469 133.140625 179.847656 Z M 130.476562 171.957031 C 130.179688 171.964844 130.167969 172.019531 129.976562 172.148438 C 129.75 172.300781 129.660156 172.242188 129.316406 172.246094 L 129.257812 172.1875 C 129.050781 172.136719 128.863281 171.980469 128.667969 172.175781 C 128.472656 172.367188 128.632812 172.550781 128.738281 172.707031 L 129.027344 172.707031 L 129.085938 172.761719 C 129.328125 172.816406 129.527344 173 129.660156 173.171875 C 129.800781 173.355469 129.964844 173.535156 130.085938 173.726562 C 130.269531 174.023438 130.691406 174.882812 130.308594 175.179688 L 130.246094 175.238281 C 129.753906 175.355469 129.742188 175.226562 129.316406 175.246094 L 129.214844 175.179688 C 129.042969 175.144531 129.125 175.199219 129.027344 175.078125 C 128.945312 175.078125 128.972656 175.097656 128.972656 175.007812 C 128.90625 174.765625 128.871094 174.777344 128.578125 174.777344 C 128.578125 174.863281 128.597656 174.835938 128.507812 174.835938 C 128.34375 174.914062 128.339844 174.878906 128.160156 174.835938 C 128.0625 174.835938 128.078125 174.863281 128.078125 174.777344 L 127.984375 174.78125 L 127.925781 174.71875 C 127.597656 174.5625 127.492188 174.757812 127.289062 174.894531 C 127.289062 175.363281 127.402344 175.253906 127.433594 175.539062 C 127.464844 175.832031 127.332031 175.773438 127.496094 176.1875 C 127.761719 176.847656 127.367188 177.140625 127.289062 177.429688 L 127.289062 177.65625 L 127.578125 178.007812 L 127.632812 178.0625 L 127.636719 178.109375 C 127.71875 178.109375 127.695312 178.089844 127.695312 178.175781 L 127.695312 178.523438 C 127.695312 178.628906 127.726562 178.609375 127.636719 178.609375 C 127.636719 178.925781 127.667969 179.046875 127.933594 179.09375 C 128.046875 179.113281 128.167969 179.109375 128.300781 179.128906 C 128.472656 179.160156 128.542969 179.183594 128.679688 179.210938 C 128.78125 179.210938 128.761719 179.183594 128.761719 179.273438 C 129.039062 179.363281 129.113281 179.746094 129.464844 179.652344 C 129.777344 179.574219 129.679688 179.292969 130.304688 179.265625 L 130.40625 179.328125 L 130.882812 179.328125 L 130.941406 179.273438 C 131.238281 179.203125 131.226562 179.15625 131.347656 178.925781 L 131.40625 178.863281 C 131.433594 178.550781 131.425781 178.636719 131.417969 178.34375 C 131.410156 178.132812 131.503906 178.003906 131.519531 177.773438 L 131.582031 177.65625 C 131.59375 177.0625 132.167969 177.300781 132.355469 176.8125 C 132.460938 176.53125 132.269531 176.234375 132.519531 176.167969 C 132.742188 176.109375 132.777344 176.378906 132.972656 176.507812 L 133.042969 176.5625 C 133.710938 176.5625 133.328125 176.269531 133.855469 176.160156 C 133.878906 176.125 133.964844 175.984375 133.964844 176.160156 C 134.296875 176.257812 134.339844 176.6875 134.421875 177.027344 L 134.476562 177.082031 C 134.515625 177.234375 134.53125 177.25 134.597656 177.367188 L 134.652344 177.429688 C 134.8125 177.730469 135.0625 177.921875 135.304688 178.160156 C 135.582031 178.4375 135.714844 178.609375 135.929688 178.925781 L 135.988281 178.984375 C 136.03125 179.066406 136.050781 179.117188 136.101562 179.195312 C 136.183594 179.195312 136.160156 179.179688 136.160156 179.273438 C 136.191406 179.402344 136.210938 179.4375 136.246094 179.589844 C 136.308594 179.875 136.191406 179.851562 136.390625 179.90625 L 136.449219 179.90625 C 136.640625 179.867188 136.527344 179.980469 136.566406 179.789062 C 136.566406 179.535156 136.535156 179.53125 136.625 179.375 C 136.742188 179.359375 136.722656 179.363281 136.808594 179.339844 C 136.761719 179.214844 136.71875 179.09375 136.667969 178.96875 L 136.507812 178.8125 L 136.390625 178.695312 C 136.339844 178.492188 136.152344 178.285156 136.042969 178.117188 L 135.984375 178.066406 L 135.929688 178.003906 C 135.675781 177.632812 135.429688 177.570312 135.175781 177.082031 L 135.117188 177.027344 C 135.054688 176.910156 135.015625 176.871094 135 176.707031 C 134.914062 176.707031 134.941406 176.722656 134.941406 176.621094 L 134.941406 176.5625 C 135.003906 176.472656 134.941406 176.472656 135.003906 176.5625 C 135.179688 176.6875 135.339844 176.925781 135.488281 177.117188 C 135.636719 177.304688 135.910156 177.503906 136.179688 177.753906 C 135.132812 175.265625 133.828125 172.910156 132.300781 170.71875 C 132.269531 170.765625 132.210938 170.828125 132.210938 170.6875 C 131.921875 170.664062 132.136719 170.644531 131.867188 170.574219 L 131.8125 170.515625 L 131.347656 170.515625 C 131.257812 170.902344 131.234375 170.757812 131.464844 171.011719 L 131.519531 171.09375 L 131.519531 171.207031 L 131.464844 171.273438 C 131.238281 171.363281 130.992188 171.203125 130.734375 171.34375 C 130.53125 171.457031 130.386719 171.757812 130.476562 171.957031 Z M 127.347656 169.59375 C 127.347656 168.820312 127.253906 169.25 127.132812 168.886719 C 127.007812 168.507812 127.144531 167.945312 126.417969 167.921875 L 126.359375 167.871094 L 126.304688 167.808594 C 125.882812 167.820312 125.910156 167.972656 126.070312 168.210938 C 125.582031 168.210938 125.882812 168.128906 125.550781 168.039062 C 125.460938 168.171875 125.480469 168.101562 125.433594 168.265625 L 125.492188 168.332031 L 125.550781 168.386719 C 125.578125 168.746094 125.683594 168.617188 125.785156 168.902344 C 125.886719 169.1875 125.773438 169.3125 125.808594 169.519531 C 125.84375 169.71875 126.023438 169.855469 126.199219 169.871094 C 126.476562 169.894531 126.277344 169.757812 126.882812 169.769531 L 127 169.769531 C 127.265625 169.742188 127.160156 169.71875 127.347656 169.59375 Z M 128.042969 169.535156 L 128.042969 169.785156 C 128.101562 169.855469 128.074219 169.6875 128.089844 169.890625 C 128.105469 170.125 128.117188 169.933594 128.042969 170.011719 L 128.042969 170.511719 L 128.097656 170.574219 C 128.148438 170.742188 128.128906 170.671875 128.21875 170.808594 L 128.269531 170.867188 L 128.332031 170.917969 L 128.390625 170.976562 C 128.675781 171.128906 128.742188 171.132812 129.042969 171.105469 C 129.402344 171.078125 129.390625 171.199219 129.78125 171.210938 L 129.851562 171.265625 L 129.898438 171.265625 L 129.957031 171.320312 C 130.289062 171.320312 130.417969 171.230469 130.304688 170.972656 L 130.25 170.917969 C 130.230469 170.160156 129.980469 170.390625 129.746094 170.035156 C 129.667969 169.914062 129.605469 169.707031 129.53125 169.554688 C 129.429688 169.351562 129.367188 169.242188 129.261719 169.074219 L 129.207031 169.019531 C 128.835938 168.367188 128.269531 168.171875 128.113281 167.679688 C 128.019531 167.386719 128.058594 167.265625 127.753906 167.171875 L 127.699219 167.117188 C 127.070312 167.105469 127.652344 166.746094 127.289062 166.480469 L 127.214844 166.425781 C 127.007812 166.425781 126.984375 166.449219 126.828125 166.484375 C 126.785156 166.65625 126.769531 166.664062 126.769531 166.890625 L 126.824219 166.945312 L 126.828125 167.058594 L 126.769531 167.160156 L 126.769531 167.386719 L 126.824219 167.464844 C 127.023438 167.746094 127.023438 167.527344 127.230469 167.796875 L 127.285156 167.867188 C 127.53125 168.203125 127.308594 168.304688 127.59375 168.488281 C 127.789062 168.613281 127.785156 168.496094 127.945312 168.65625 C 128.035156 168.746094 127.984375 168.785156 128.160156 168.910156 L 128.210938 168.960938 C 128.394531 169.054688 128.332031 169.09375 128.332031 169.363281 C 128.21875 169.441406 128.171875 169.46875 128.042969 169.535156 Z M 104.679688 159.457031 C 104.851562 159.71875 105.21875 159.910156 105.488281 160.089844 L 105.550781 160.148438 C 105.777344 160.304688 105.796875 160.394531 105.953125 160.597656 L 106.011719 160.667969 C 106.070312 160.878906 106.070312 160.742188 106.128906 160.953125 L 106.1875 161.011719 L 106.183594 161.050781 C 106.269531 161.050781 106.246094 161.03125 106.246094 161.128906 L 106.359375 161.359375 L 106.417969 161.417969 C 106.671875 161.796875 106.964844 162.121094 107.355469 162.382812 C 107.664062 162.59375 108.269531 162.960938 108.738281 162.96875 L 108.859375 163.027344 L 109.085938 163.015625 L 109.183594 163.085938 L 109.953125 163.085938 L 110.070312 163.03125 L 110.316406 163.027344 C 110.414062 162.949219 110.738281 162.929688 110.816406 163.027344 L 110.996094 163.027344 L 111.054688 163.085938 C 111.308594 163.144531 111.371094 163.242188 111.535156 163.414062 C 111.679688 163.570312 111.75 163.726562 111.921875 163.835938 C 112.226562 164.027344 112.753906 164.058594 113.027344 163.546875 L 113.085938 163.488281 C 113.261719 162.730469 113.296875 162.277344 112.910156 161.703125 L 112.851562 161.644531 L 112.855469 161.585938 L 112.910156 161.535156 C 113.171875 161.523438 113.203125 161.507812 113.320312 161.359375 L 113.375 161.292969 C 113.4375 161.039062 113.441406 161.164062 113.375 160.910156 C 113.292969 160.910156 113.316406 160.929688 113.316406 160.839844 C 113.226562 160.648438 113.257812 160.476562 113.257812 160.207031 L 113.316406 160.144531 L 113.546875 159.917969 L 113.605469 159.859375 L 113.640625 159.859375 C 113.640625 159.773438 113.621094 159.800781 113.722656 159.800781 C 113.945312 159.785156 114 159.75 114.300781 159.746094 C 114.601562 159.742188 114.628906 159.695312 114.871094 159.6875 C 114.871094 159.605469 114.851562 159.628906 114.941406 159.628906 C 115.457031 159.511719 115.816406 159.070312 116.042969 158.652344 L 116.101562 158.59375 C 116.207031 158.5 116.234375 158.441406 116.421875 158.421875 C 116.472656 158.394531 116.429688 158.402344 116.5625 158.371094 C 116.582031 158.363281 116.648438 158.367188 116.679688 158.367188 C 117.09375 158.347656 117.144531 158.089844 117.296875 157.941406 C 112.449219 155.605469 107.046875 154.242188 101.335938 154.109375 L 101.480469 154.160156 L 101.605469 154.160156 L 101.664062 154.214844 C 101.871094 154.234375 101.9375 154.285156 102.128906 154.332031 C 102.226562 154.332031 102.210938 154.300781 102.210938 154.386719 L 102.300781 154.386719 L 102.359375 154.445312 C 102.613281 154.503906 102.925781 154.695312 103.121094 154.839844 C 103.738281 155.292969 104.078125 156.253906 105.257812 156.226562 L 105.355469 156.289062 C 105.484375 156.308594 105.464844 156.300781 105.546875 156.347656 L 105.613281 156.40625 L 105.671875 156.574219 L 105.535156 156.578125 C 105.417969 156.660156 105.339844 156.683594 105.214844 156.578125 C 104.757812 156.578125 104.332031 156.417969 103.9375 156.636719 L 103.867188 156.691406 C 103.785156 156.8125 103.722656 156.851562 103.75 157.085938 C 103.765625 157.234375 103.832031 157.355469 103.941406 157.425781 C 104.246094 157.621094 104.449219 157.390625 104.800781 157.382812 L 104.910156 157.320312 L 105.167969 157.324219 C 105.257812 157.242188 105.277344 157.265625 105.429688 157.261719 C 105.59375 157.257812 105.648438 157.242188 105.71875 157.324219 L 105.777344 157.382812 L 105.722656 157.4375 L 105.585938 157.441406 L 105.429688 157.507812 C 105.050781 157.515625 104.640625 157.859375 104.5625 158.191406 L 104.503906 158.246094 L 104.503906 158.304688 C 104.503906 158.402344 104.53125 158.378906 104.445312 158.378906 L 104.445312 159.054688 L 104.503906 159.113281 C 104.539062 159.261719 104.554688 159.28125 104.621094 159.394531 Z M 100.230469 162.628906 C 100.140625 162.601562 100.085938 162.636719 100.15625 162.566406 C 100.226562 162.496094 100.367188 162.664062 100.230469 162.628906 Z M 96.03125 160.089844 L 95.808594 160.320312 L 95.75 160.375 C 95.589844 160.488281 95.605469 160.550781 95.417969 160.609375 L 95.285156 160.664062 C 95.015625 160.691406 95 160.792969 94.996094 161.070312 C 95.089844 161.167969 95.121094 161.203125 95.285156 161.242188 C 95.242188 161.421875 95.292969 161.332031 95.152344 161.417969 L 94.996094 161.476562 L 94.691406 161.472656 L 94.589844 161.53125 C 94.226562 161.53125 94.332031 161.585938 94.066406 161.644531 L 94.011719 161.644531 C 93.742188 161.625 93.804688 161.550781 93.597656 161.539062 C 93.394531 161.527344 93.398438 161.601562 93.195312 161.644531 L 93.140625 161.699219 C 92.921875 161.757812 92.894531 161.828125 92.675781 161.875 C 92.675781 162.421875 92.941406 162.257812 93.449219 162.324219 C 93.941406 162.386719 94.046875 162.132812 94.359375 162.050781 L 94.414062 161.996094 L 94.519531 161.992188 L 94.589844 161.941406 C 94.910156 161.898438 94.714844 161.921875 95.054688 161.9375 L 95.109375 161.992188 C 95.570312 162.207031 95.171875 161.933594 96.101562 162.449219 C 96.457031 162.644531 96.21875 162.695312 96.445312 162.980469 L 96.507812 163.027344 L 97.371094 163.03125 L 97.488281 163.140625 L 97.539062 163.199219 C 97.605469 163.398438 97.578125 163.378906 97.777344 163.433594 L 98.070312 163.433594 L 98.417969 163.429688 L 98.519531 163.488281 C 98.8125 163.558594 98.582031 163.597656 98.996094 163.605469 L 99.0625 163.660156 L 99.171875 163.722656 L 99.230469 163.777344 C 99.359375 163.839844 99.480469 163.867188 99.554688 163.691406 C 99.652344 163.464844 99.5 163.398438 99.398438 163.320312 C 99.144531 163.128906 99.003906 163.007812 98.648438 162.90625 L 98.585938 162.855469 C 98.421875 162.851562 98.371094 162.84375 98.246094 162.792969 C 98.097656 162.734375 98.054688 162.6875 98.011719 162.566406 L 98.300781 162.574219 L 98.515625 162.625 L 98.707031 162.628906 L 98.765625 162.683594 C 99.007812 162.703125 99.039062 162.777344 99.285156 162.800781 L 99.339844 162.855469 C 99.464844 162.882812 99.578125 162.902344 99.722656 162.9375 C 99.917969 162.988281 99.929688 163.023438 100.15625 163.027344 C 100.28125 162.84375 100.25 162.988281 100.269531 162.738281 C 100.457031 162.863281 100.3125 162.835938 100.5625 162.855469 C 100.652344 162.464844 100.585938 162.386719 100.269531 162.222656 L 100.210938 162.167969 L 100.15625 162.105469 L 100.101562 162.050781 C 99.945312 161.949219 99.984375 161.917969 99.78125 161.84375 C 99.632812 161.789062 99.535156 161.785156 99.382812 161.722656 C 99.070312 161.59375 98.945312 161.464844 98.707031 161.296875 L 98.652344 161.242188 C 98.460938 161.195312 98.535156 161.222656 98.417969 161.09375 L 98.363281 161.011719 C 98.40625 160.792969 98.390625 160.820312 98.53125 160.738281 L 98.585938 160.957031 C 98.65625 161.027344 98.492188 161.015625 98.707031 161.003906 C 98.832031 160.992188 98.757812 161.007812 98.824219 160.957031 C 98.824219 160.902344 98.820312 160.835938 98.828125 160.78125 C 98.863281 160.535156 98.828125 160.75 98.878906 160.644531 L 98.878906 160.550781 C 99.058594 160.59375 99.050781 160.625 99.226562 160.671875 L 99.332031 160.726562 C 99.601562 160.851562 99.585938 160.890625 99.980469 160.902344 L 100.035156 160.957031 L 100.039062 161.011719 L 100.039062 161.070312 C 100.117188 161.347656 100.175781 161.292969 100.503906 161.304688 L 100.5625 161.359375 C 100.6875 161.492188 100.703125 161.523438 100.96875 161.53125 C 101.058594 161.34375 100.988281 161.292969 101.074219 161.128906 C 101.074219 161.128906 101.203125 160.933594 101.203125 161.128906 L 101.316406 161.132812 L 101.488281 161.132812 C 101.949219 161.078125 102.382812 160.277344 101.796875 160.292969 C 101.210938 160.308594 101.539062 160.214844 101.164062 160.125 C 100.738281 160.019531 101.3125 160.253906 100.445312 160.03125 L 100.390625 159.972656 L 100.332031 159.917969 C 100.246094 159.917969 100.265625 159.941406 100.265625 159.859375 L 100.15625 159.800781 L 100.101562 159.746094 C 99.886719 159.699219 99.480469 159.632812 99.226562 159.621094 L 99.164062 159.574219 C 98.761719 159.347656 99.054688 159.457031 98.527344 159.402344 C 98.121094 159.359375 98.351562 159.203125 98.417969 158.9375 L 98.472656 158.878906 C 98.503906 158.53125 98.632812 158.652344 98.824219 158.535156 L 98.824219 158.421875 L 98.820312 158.359375 L 98.75 158.304688 L 98.648438 158.300781 L 98.59375 158.246094 L 97.878906 158.304688 L 97.777344 158.359375 L 97.652344 158.332031 C 97.78125 158.105469 97.691406 157.921875 97.40625 157.992188 C 97.082031 158.066406 97.671875 158.152344 96.824219 157.925781 C 96.402344 157.816406 96.574219 157.730469 96.335938 157.601562 C 96.070312 157.457031 95.964844 157.648438 95.695312 157.671875 C 95.6875 157.683594 95.5625 157.867188 95.5625 157.671875 L 95.421875 157.671875 C 95.410156 157.679688 95.394531 157.691406 95.386719 157.699219 L 95.339844 157.714844 C 95.300781 157.730469 95.277344 157.726562 95.226562 157.726562 L 94.996094 157.726562 L 94.878906 157.671875 L 94.707031 157.671875 L 94.707031 157.5 C 94.890625 157.496094 95.039062 157.507812 94.988281 157.289062 C 94.953125 157.128906 94.800781 157.121094 94.648438 157.035156 L 94.59375 156.980469 C 94.351562 156.980469 94.371094 156.996094 94.191406 157.039062 L 94.125 157.09375 C 93.769531 157.105469 93.898438 157.203125 93.550781 157.210938 L 93.488281 157.265625 C 93.042969 157.3125 93.230469 157.671875 92.734375 157.667969 L 92.679688 157.613281 C 92.386719 157.242188 92.117188 157.550781 91.78125 157.613281 C 91.753906 157.664062 91.675781 157.777344 91.675781 157.613281 C 91.542969 157.335938 91.890625 156.988281 91.457031 156.863281 L 91.226562 156.863281 C 91.023438 156.921875 91.097656 156.910156 90.964844 157.039062 C 90.921875 157.0625 90.933594 157.066406 90.84375 157.074219 C 90.769531 157.078125 90.78125 157.109375 90.78125 157.039062 L 90.648438 157.039062 L 90.589844 156.980469 C 90.359375 156.980469 90.355469 157 90.183594 157.039062 L 90.125 157.09375 C 89.792969 157.277344 89.957031 157.195312 89.777344 157.496094 C 89.671875 157.667969 89.546875 157.730469 89.429688 157.902344 C 89.46875 158.054688 89.425781 157.949219 89.488281 158.074219 L 89.542969 158.136719 L 89.601562 158.191406 C 89.667969 158.273438 89.660156 158.058594 89.660156 158.363281 C 89.628906 158.378906 89.472656 158.511719 89.3125 158.425781 C 89.304688 158.417969 89.117188 158.292969 89.3125 158.292969 C 89.292969 158.1875 89.296875 158.207031 89.253906 158.128906 L 89.183594 158.074219 C 88.527344 158.015625 89.367188 156.835938 88.542969 157.304688 C 88.5 157.328125 88.492188 157.410156 88.09375 157.441406 L 88.039062 157.496094 C 87.742188 157.570312 87.648438 157.480469 87.570312 157.730469 L 87.515625 157.789062 C 87.339844 158.019531 87.371094 157.777344 87.28125 158.074219 L 87.226562 158.128906 C 87.125 158.289062 87.066406 158.324219 87.167969 158.535156 L 87.222656 158.59375 C 87.304688 158.636719 87.289062 158.628906 87.40625 158.652344 L 87.457031 158.597656 L 87.691406 158.597656 L 87.765625 158.652344 L 88.042969 158.652344 L 88.097656 158.597656 L 88.269531 158.589844 L 88.222656 158.707031 L 88.097656 158.761719 L 88.039062 158.761719 L 87.824219 158.707031 C 87.046875 158.707031 87.332031 159.179688 87.617188 159.15625 L 88.558594 159 L 88.632812 159.054688 L 89.003906 159.054688 L 89.082031 159 L 89.199219 159 L 89.273438 159.054688 L 89.453125 159.054688 L 89.546875 158.984375 L 89.894531 159 L 89.953125 159.054688 L 90.1875 159.054688 L 90.242188 159 C 90.535156 158.992188 90.917969 159.015625 91.125 158.953125 C 91.472656 158.839844 91.386719 158.683594 91.734375 158.59375 L 92.144531 158.59375 L 92.214844 158.539062 L 92.550781 158.234375 C 92.628906 158.5 92.777344 158.457031 93.023438 158.535156 C 93.320312 158.632812 93.253906 158.753906 93.605469 158.769531 C 93.8125 158.773438 93.71875 158.753906 93.824219 158.824219 C 94.003906 158.835938 94.210938 159.027344 94.648438 159.226562 C 94.78125 159.289062 94.828125 159.332031 94.9375 159.398438 C 95.488281 159.714844 95.5 159.429688 95.980469 160.019531 Z M 92.910156 181.992188 C 92.917969 181.492188 93.082031 180.996094 93.253906 180.652344 L 93.316406 180.597656 L 93.429688 180.480469 C 93.546875 180.425781 93.636719 180.398438 93.78125 180.367188 L 93.835938 180.308594 C 94.230469 180.035156 94.105469 179.925781 94.34375 179.546875 C 94.539062 179.238281 94.707031 179.113281 94.996094 178.925781 L 95.054688 178.867188 C 95.46875 178.589844 95.820312 178.246094 96.097656 177.832031 L 96.15625 177.769531 C 96.371094 177.382812 96.542969 177.039062 96.910156 176.792969 L 96.96875 176.738281 C 97.171875 176.628906 97.507812 176.414062 97.777344 176.390625 L 97.835938 176.332031 L 97.96875 176.332031 L 98.070312 176.269531 C 98.507812 176.292969 98.828125 176.238281 99.113281 176.101562 L 99.171875 176.046875 C 99.433594 175.976562 99.53125 175.785156 99.863281 175.757812 L 99.925781 175.699219 L 99.980469 175.699219 L 100.039062 175.644531 C 100.390625 175.613281 100.210938 175.613281 100.5625 175.644531 C 100.5 175.867188 100.339844 175.929688 100.113281 175.988281 C 100.113281 176.070312 100.128906 176.042969 100.039062 176.042969 C 99.6875 176.128906 99.355469 176.304688 99.34375 176.734375 L 99.402344 176.792969 C 99.496094 177.148438 99.945312 177.1875 100.160156 176.914062 C 100.246094 176.800781 100.289062 176.683594 100.398438 176.574219 C 100.542969 176.429688 100.621094 176.425781 100.796875 176.332031 L 100.851562 176.28125 C 101.058594 176.226562 101.015625 176.179688 101.25 176.160156 C 101.25 176.078125 101.230469 176.101562 101.316406 176.101562 L 101.480469 176.101562 L 101.605469 176.046875 C 102.011719 176.046875 102.15625 176.003906 102.472656 175.929688 C 102.515625 175.761719 102.53125 175.753906 102.53125 175.527344 L 102.359375 175.410156 L 102.300781 175.355469 L 102.027344 175.355469 C 101.882812 175.433594 101.792969 175.4375 101.613281 175.394531 L 101.527344 175.355469 C 101.101562 175.355469 100.707031 175.078125 100.535156 174.804688 C 100.417969 174.617188 100.410156 174.476562 100.285156 174.304688 C 100.128906 174.101562 100.023438 174.085938 99.808594 173.96875 L 99.75 173.914062 L 99.929688 173.800781 C 99.988281 173.761719 99.9375 173.773438 100.046875 173.75 C 100.089844 173.738281 100.167969 173.742188 100.214844 173.742188 C 100.480469 173.71875 100.371094 173.695312 100.5625 173.570312 C 100.5625 173.464844 100.574219 173.265625 100.550781 173.175781 C 100.507812 172.980469 100.492188 173.019531 100.328125 172.9375 C 100.078125 172.933594 100.214844 172.929688 100.160156 172.878906 L 99.886719 172.878906 C 99.847656 172.898438 99.84375 172.914062 99.75 172.933594 C 99.730469 172.9375 99.660156 172.9375 99.636719 172.9375 C 99.578125 172.941406 99.46875 172.9375 99.402344 172.9375 C 99.015625 172.9375 98.953125 173.023438 98.65625 173.050781 L 98.589844 173.109375 C 98.257812 173.136719 97.734375 173.429688 97.53125 173.613281 C 97.269531 173.84375 97.046875 174.234375 96.675781 174.316406 L 96.675781 174.144531 L 96.734375 174.082031 C 96.878906 173.882812 97.050781 173.722656 97.269531 173.582031 C 97.40625 173.488281 97.757812 173.214844 97.835938 173.109375 L 97.890625 173.046875 L 97.953125 172.996094 C 98.246094 172.796875 98.480469 172.625 98.882812 172.53125 L 98.9375 172.476562 C 99.179688 172.453125 99.34375 172.359375 99.570312 172.300781 L 99.632812 172.246094 C 99.75 172.1875 99.863281 172.144531 100.023438 172.128906 C 100.023438 172.042969 100.003906 172.070312 100.097656 172.070312 C 100.363281 172.066406 100.605469 172.015625 100.96875 172.011719 C 101.351562 172.011719 101.53125 172.066406 101.835938 172.074219 L 101.890625 172.128906 C 102.171875 172.128906 102.148438 172.179688 102.363281 172.183594 C 102.609375 172.191406 102.59375 172.128906 102.890625 172.128906 L 102.996094 172.070312 C 103.265625 172.050781 103.570312 171.84375 103.753906 171.726562 L 103.808594 171.671875 C 103.972656 171.582031 104.066406 171.5 104.304688 171.496094 C 104.304688 171.410156 104.285156 171.4375 104.386719 171.4375 C 104.96875 171.4375 105.199219 171.457031 105.539062 171.207031 C 105.539062 171.121094 105.515625 171.144531 105.601562 171.144531 L 105.664062 171.09375 L 105.722656 171.03125 C 105.96875 170.675781 106.015625 170.539062 106.011719 169.941406 C 106.011719 169.71875 106.023438 169.46875 106.011719 169.246094 C 106 168.96875 105.917969 168.867188 105.894531 168.617188 L 105.835938 168.558594 L 105.835938 168.515625 L 105.78125 168.441406 L 105.664062 168.210938 L 105.605469 168.152344 L 105.542969 168.097656 L 105.375 167.925781 L 105.308594 167.867188 C 105.179688 167.773438 105.085938 167.683594 104.910156 167.636719 L 104.851562 167.578125 C 104.292969 167.449219 104.097656 167.433594 103.53125 167.578125 C 103.53125 167.660156 103.546875 167.636719 103.460938 167.636719 C 103.011719 167.671875 102.660156 167.800781 102.289062 167.53125 C 101.941406 167.28125 101.957031 167.054688 101.835938 166.617188 C 101.753906 166.617188 101.78125 166.632812 101.78125 166.542969 C 101.710938 166.414062 101.683594 166.367188 101.605469 166.253906 L 101.539062 166.203125 L 101.484375 166.144531 L 101.429688 166.082031 L 101.257812 165.96875 L 101.199219 165.90625 C 100.988281 165.753906 101.140625 165.878906 101.054688 165.589844 C 101 165.402344 100.972656 165.363281 100.851562 165.277344 L 100.792969 165.21875 C 100.460938 165.054688 100.113281 165.167969 99.949219 165.414062 C 99.566406 165.988281 99.132812 166.25 98.335938 166.046875 C 97.925781 165.945312 97.789062 165.875 97.605469 165.578125 C 97.523438 165.578125 97.546875 165.59375 97.546875 165.503906 L 97.546875 165.441406 C 97.464844 165.339844 97.511719 165.472656 97.488281 165.277344 C 97.480469 165.230469 97.488281 165.097656 97.488281 165.042969 C 97.363281 164.515625 96.980469 164.457031 96.558594 164.238281 L 96.503906 164.179688 C 96.316406 164.054688 96.238281 163.902344 95.980469 163.835938 L 95.921875 163.777344 C 95.738281 163.6875 95.503906 163.601562 95.226562 163.605469 L 94.707031 163.605469 C 94.421875 163.601562 94.460938 163.652344 94.238281 163.660156 C 93.976562 163.667969 94.054688 163.609375 93.777344 163.605469 C 93.621094 163.605469 93.398438 163.644531 93.328125 163.546875 C 93.078125 163.496094 93.117188 163.402344 92.886719 163.464844 C 92.875 163.46875 92.703125 163.566406 92.699219 163.566406 C 92.578125 163.699219 92.644531 163.480469 92.617188 163.777344 L 92.617188 163.949219 C 92.636719 164.152344 92.660156 164.203125 92.679688 164.46875 C 92.691406 164.722656 92.75 164.816406 92.78125 165 C 92.875 165.59375 92.59375 165.453125 92.386719 165.851562 L 92.328125 165.910156 C 92.328125 166.40625 92.316406 166.460938 92.652344 166.679688 C 92.878906 166.832031 93.097656 166.960938 93.175781 167.257812 C 93.355469 167.921875 92.695312 168.421875 92.328125 168.617188 L 92.269531 168.671875 C 91.859375 168.886719 91.515625 169.078125 91.574219 169.761719 C 91.597656 170.039062 91.683594 170.199219 91.695312 170.515625 C 91.707031 170.910156 91.644531 171.03125 91.574219 171.320312 L 91.515625 171.378906 C 91.238281 171.796875 90.730469 171.910156 90.414062 171.4375 L 90.359375 171.378906 C 90.207031 171.101562 90.160156 170.949219 90.078125 170.621094 C 90.027344 170.417969 89.957031 169.917969 89.953125 169.695312 L 89.890625 169.59375 C 89.84375 169.359375 89.625 169.023438 89.46875 168.863281 C 89.402344 168.800781 89.207031 168.664062 89.136719 168.617188 C 89.007812 168.53125 88.914062 168.457031 88.734375 168.445312 L 88.675781 168.386719 C 88.394531 168.386719 88.425781 168.335938 88.210938 168.332031 C 87.960938 168.324219 87.984375 168.386719 87.6875 168.386719 L 87.632812 168.441406 L 87.496094 168.441406 C 87.378906 168.542969 87.136719 168.53125 86.996094 168.441406 L 86.703125 168.445312 L 86.539062 168.386719 C 86.125 168.386719 85.980469 168.269531 85.601562 168.269531 L 85.496094 168.210938 C 85.230469 168.191406 84.695312 167.96875 84.5 167.867188 L 84.445312 167.808594 C 84.253906 167.683594 83.832031 167.144531 83.730469 166.90625 C 83.644531 166.710938 83.574219 166.507812 83.570312 166.253906 C 83.5625 165.894531 83.664062 165.796875 83.691406 165.503906 L 83.746094 165.441406 L 83.746094 165.390625 L 83.804688 165.332031 C 83.847656 165.253906 83.875 165.179688 83.925781 165.105469 C 83.992188 164.992188 84.023438 164.980469 84.089844 164.871094 C 84.089844 164.789062 84.070312 164.808594 84.152344 164.808594 C 84.25 164.675781 84.28125 164.664062 84.328125 164.46875 C 84.328125 164.382812 84.304688 164.402344 84.386719 164.402344 L 84.386719 164.351562 L 84.445312 164.296875 C 84.492188 164.089844 84.511719 164.0625 84.664062 163.9375 C 84.769531 163.851562 84.898438 163.753906 85.023438 163.71875 L 85.082031 163.664062 L 85.128906 163.660156 L 85.199219 163.605469 C 85.480469 163.582031 85.480469 163.488281 85.8125 163.488281 C 85.8125 163.402344 85.792969 163.429688 85.894531 163.429688 C 86.183594 163.425781 86.332031 163.316406 86.585938 163.257812 L 86.648438 163.203125 C 86.960938 163.125 87.597656 162.734375 87.75 162.511719 C 87.707031 162.339844 87.757812 162.425781 87.632812 162.339844 L 87.515625 162.339844 L 87.398438 162.335938 L 87.515625 162.28125 C 88.039062 161.828125 88.167969 161.347656 88.527344 161.28125 C 88.828125 161.222656 88.9375 161.496094 89.285156 161.394531 C 89.496094 161.332031 89.417969 161.273438 89.628906 161.210938 C 89.777344 161.164062 89.960938 161.183594 90.125 161.183594 L 90.183594 161.128906 L 90.234375 161.128906 L 90.300781 161.070312 C 90.414062 161.007812 90.40625 161.019531 90.511719 160.9375 C 90.664062 160.820312 90.546875 160.839844 90.761719 160.78125 L 90.820312 160.726562 C 91.160156 160.644531 91.0625 160.277344 90.855469 160.113281 C 90.640625 159.941406 90.484375 159.753906 90.300781 159.628906 L 90.230469 159.574219 L 90.125 159.570312 C 90.03125 159.570312 90.050781 159.597656 90.050781 159.515625 L 89.730469 159.515625 L 89.660156 159.570312 C 89.433594 159.625 89.421875 159.695312 89.1875 159.746094 L 89.082031 159.808594 C 88.480469 159.941406 89.148438 160.449219 88.367188 160.609375 L 88.269531 160.675781 C 87.84375 160.660156 87.910156 160.824219 87.457031 160.609375 C 87.628906 160.378906 87.714844 160.554688 87.75 160.207031 L 87.75 160.148438 C 87.714844 159.792969 87.40625 159.824219 87.160156 159.902344 C 86.886719 159.992188 86.847656 160.128906 86.589844 160.261719 L 86.472656 160.148438 L 86.414062 160.09375 L 86.359375 160.035156 C 86.210938 159.910156 86.121094 159.847656 85.835938 159.855469 C 85.585938 159.859375 85.460938 159.917969 85.324219 160.042969 C 84.964844 160.371094 85.230469 160.554688 84.671875 160.839844 L 84.617188 160.894531 L 84.386719 161.128906 L 84.332031 161.1875 L 84.269531 161.242188 C 84.171875 161.425781 84.105469 161.542969 83.921875 161.644531 C 83.636719 161.808594 83.59375 161.726562 83.285156 161.707031 C 83.195312 161.707031 83.21875 161.726562 83.21875 161.644531 C 82.910156 161.570312 82.949219 161.53125 82.53125 161.53125 L 82.355469 161.53125 C 81.644531 161.53125 81.597656 161.777344 81.128906 161.875 L 81.023438 161.941406 C 80.78125 161.933594 80.589844 162.019531 80.378906 162.042969 C 80.140625 162.066406 79.816406 162.050781 79.570312 162.050781 L 79.515625 162.105469 L 79.300781 162.105469 L 79.167969 162.164062 C 78.625 162.207031 78.367188 162.574219 77.890625 162.683594 L 77.835938 162.738281 C 77.566406 162.804688 77.4375 162.90625 77.121094 162.914062 L 77.023438 162.980469 C 76.761719 162.96875 76.722656 163.035156 76.503906 163.085938 L 76.441406 163.144531 L 76.289062 163.144531 L 76.210938 163.199219 C 75.941406 163.210938 75.820312 163.292969 75.570312 163.316406 C 75.527344 163.320312 75.261719 163.320312 75.226562 163.316406 L 75.210938 163.316406 C 71.898438 166.125 69.066406 169.480469 66.859375 173.242188 C 66.9375 173.277344 67.023438 173.359375 67.109375 173.5 L 67.164062 173.570312 C 67.207031 173.730469 67.246094 173.871094 67.28125 174.03125 L 67.335938 174.089844 C 67.367188 174.355469 67.449219 174.359375 67.515625 174.582031 C 67.601562 174.582031 67.570312 174.5625 67.570312 174.664062 L 67.863281 175.226562 C 67.945312 175.226562 67.921875 175.210938 67.921875 175.296875 C 67.976562 175.546875 68.125 175.742188 68.152344 176.03125 L 68.207031 176.101562 C 68.222656 176.5625 68.382812 176.871094 68.320312 177.480469 C 68.300781 177.640625 68.238281 177.917969 68.1875 178.097656 C 68.109375 178.363281 68 178.4375 67.976562 178.695312 L 67.921875 178.75 C 67.898438 179.003906 67.820312 179.023438 67.808594 179.273438 L 67.746094 179.429688 L 67.757812 179.558594 L 67.6875 179.652344 C 67.6875 179.941406 67.644531 179.960938 67.628906 180.25 C 67.617188 180.527344 67.570312 180.613281 67.570312 180.828125 L 67.6875 181.992188 L 67.757812 182.09375 L 67.746094 182.222656 L 67.808594 182.382812 C 67.820312 182.628906 67.898438 182.652344 67.921875 182.902344 L 67.976562 182.957031 C 68 183.203125 68.125 183.339844 68.152344 183.632812 L 68.207031 183.707031 C 68.210938 183.902344 68.238281 183.976562 68.257812 184.121094 C 68.285156 184.316406 68.285156 184.4375 68.292969 184.519531 C 68.328125 184.851562 68.417969 184.976562 68.671875 185.148438 L 68.734375 185.203125 C 69.171875 185.308594 69.792969 185.648438 69.832031 186.117188 C 69.863281 186.164062 69.859375 186.148438 69.886719 186.242188 C 69.890625 186.261719 69.890625 186.324219 69.890625 186.355469 C 69.894531 186.847656 69.949219 187.167969 70.105469 187.527344 C 70.210938 187.777344 70.238281 187.75 70.394531 187.929688 C 70.519531 188.074219 70.617188 188.210938 70.703125 188.371094 L 70.761719 188.429688 C 70.894531 190.035156 70.816406 189.28125 71.414062 189.851562 C 71.597656 190.027344 71.628906 190.050781 71.746094 190.273438 L 71.804688 190.332031 C 71.847656 190.828125 72.039062 191.226562 72.3125 191.609375 L 72.441406 191.769531 L 72.503906 191.828125 L 72.789062 192.117188 L 72.847656 192.171875 C 72.933594 192.214844 72.894531 192.234375 73.003906 192.203125 C 73.25 192.125 73.074219 192.222656 73.140625 192.058594 L 73.140625 191.941406 C 73.035156 191.789062 72.894531 191.636719 72.789062 191.480469 L 72.734375 191.425781 L 72.730469 191.367188 L 72.675781 191.308594 C 72.617188 191.1875 72.574219 191.082031 72.558594 190.914062 L 72.5 190.847656 L 72.5 190.554688 L 72.441406 190.386719 C 72.425781 190.179688 72.371094 190.113281 72.328125 189.925781 L 72.269531 189.871094 L 72.269531 189.824219 L 72.210938 189.753906 C 72.128906 189.421875 71.761719 188.882812 71.515625 188.71875 L 71.457031 188.660156 L 71.398438 188.605469 C 71.316406 188.605469 71.335938 188.625 71.335938 188.546875 C 71.238281 188.386719 71.074219 188.164062 71.050781 187.929688 C 70.964844 187.929688 70.992188 187.949219 70.992188 187.851562 C 70.988281 187.640625 70.917969 187.429688 70.902344 187.199219 C 70.894531 187.097656 70.894531 187.027344 70.925781 186.925781 C 70.988281 186.714844 70.957031 186.757812 71.101562 186.703125 C 71.109375 186.691406 71.242188 186.496094 71.242188 186.703125 C 71.441406 186.761719 71.507812 186.957031 71.515625 187.207031 L 71.570312 187.277344 L 71.574219 187.386719 L 71.628906 187.449219 L 71.746094 187.839844 C 71.828125 187.839844 71.804688 187.820312 71.804688 187.910156 C 71.855469 188.125 72.097656 188.457031 72.210938 188.652344 C 72.292969 188.652344 72.269531 188.632812 72.269531 188.71875 C 72.414062 188.933594 72.441406 188.972656 72.632812 189.164062 C 72.730469 189.265625 72.914062 189.488281 72.984375 189.617188 C 73.316406 190.210938 72.816406 190.097656 73.601562 190.617188 L 73.71875 190.734375 L 74.066406 191.078125 L 74.125 191.136719 L 74.1875 191.195312 C 74.308594 191.394531 74.472656 191.570312 74.605469 191.808594 C 74.722656 192.015625 74.886719 192.308594 74.933594 192.539062 L 75.003906 192.632812 C 75.003906 192.882812 75.101562 192.996094 75.109375 193.265625 L 75.167969 193.324219 C 75.167969 193.796875 75.382812 194.175781 75.617188 194.433594 C 75.832031 194.671875 76.207031 194.988281 76.558594 195.046875 L 76.664062 195.109375 C 76.789062 195.164062 77.003906 195.253906 77.140625 195.285156 L 77.203125 195.34375 C 77.371094 195.382812 77.371094 195.414062 77.542969 195.460938 L 77.613281 195.515625 C 77.820312 195.566406 77.847656 195.636719 78.066406 195.6875 L 78.125 195.746094 L 78.878906 196.089844 L 78.9375 196.148438 C 79.066406 196.21875 79.175781 196.273438 79.292969 196.371094 C 79.449219 196.492188 79.429688 196.515625 79.628906 196.609375 C 80.039062 196.804688 80.207031 196.703125 80.621094 196.609375 L 80.730469 196.550781 L 81.3125 196.550781 C 81.414062 196.550781 81.394531 196.523438 81.394531 196.609375 L 81.660156 196.71875 L 81.71875 196.78125 L 81.777344 196.835938 L 81.839844 196.894531 C 81.9375 197.101562 82 197.230469 82.125 197.414062 L 82.179688 197.472656 L 82.246094 197.523438 L 82.300781 197.585938 L 82.351562 197.644531 C 82.523438 197.753906 82.496094 197.785156 82.710938 197.871094 C 82.84375 197.921875 83.007812 197.976562 83.167969 197.992188 L 83.304688 198.046875 L 83.398438 198.035156 L 83.496094 198.105469 C 83.804688 198.113281 83.914062 198.214844 84.210938 198.222656 L 84.269531 198.28125 C 84.648438 198.3125 84.929688 198.550781 85.253906 198.625 L 85.3125 198.683594 C 85.464844 198.78125 85.476562 198.777344 85.597656 198.917969 C 85.703125 199.042969 85.726562 199.066406 85.777344 199.242188 C 85.863281 199.242188 85.835938 199.222656 85.835938 199.316406 C 85.878906 199.507812 85.957031 199.613281 86.007812 199.832031 L 86.0625 199.890625 C 86.089844 200.144531 86.152344 200.257812 86.277344 200.429688 C 86.40625 200.597656 86.492188 200.695312 86.703125 200.757812 L 86.765625 200.8125 L 86.820312 200.816406 L 86.878906 200.871094 C 86.996094 200.933594 87.015625 200.949219 87.167969 200.988281 L 87.226562 201.042969 C 87.542969 201.117188 87.722656 201.308594 88.039062 201.394531 L 88.09375 201.445312 C 88.230469 201.515625 88.332031 201.582031 88.503906 201.621094 L 88.558594 201.679688 C 88.75 201.722656 89.050781 201.882812 89.238281 201.984375 C 89.488281 202.117188 89.5625 202.351562 89.835938 202.425781 L 89.953125 202.425781 C 90.164062 202.371094 90.074219 202.363281 90.242188 202.253906 C 90.242188 201.785156 90.199219 201.5 90.652344 201.449219 C 90.941406 201.414062 91.382812 201.570312 91.457031 201.847656 L 91.515625 201.90625 C 91.511719 202.105469 91.492188 202.191406 91.390625 202.300781 C 91.265625 202.433594 91.222656 202.402344 91.039062 202.46875 C 90.660156 202.605469 90.75 202.816406 90.320312 202.828125 L 90.183594 202.886719 C 89.941406 202.953125 89.839844 203.101562 89.835938 203.40625 L 89.777344 203.464844 C 89.738281 203.632812 89.675781 203.730469 89.601562 203.867188 L 89.546875 203.921875 C 89.398438 204.144531 89.242188 204.230469 89.082031 204.5 C 88.96875 204.703125 88.785156 205.011719 88.808594 205.304688 L 88.734375 205.402344 L 88.734375 206.160156 L 88.792969 206.285156 L 88.808594 207.207031 L 88.734375 207.300781 L 88.734375 207.4375 C 88.734375 207.523438 88.757812 207.507812 88.675781 207.507812 C 88.640625 207.640625 88.617188 207.675781 88.558594 207.78125 L 88.503906 207.839844 C 88.332031 208.09375 88.109375 208.199219 87.933594 208.484375 C 87.90625 208.527344 87.84375 208.644531 87.824219 208.664062 C 87.632812 208.875 87.378906 208.679688 87.289062 209.050781 L 87.226562 209.109375 L 87.226562 209.332031 C 87.269531 209.394531 87.257812 209.332031 87.265625 209.441406 C 87.269531 209.523438 87.324219 209.511719 87.226562 209.511719 C 87.214844 210.117188 86.703125 210.148438 86.839844 210.640625 C 86.890625 210.832031 86.96875 210.875 87.167969 210.894531 L 87.226562 210.949219 L 87.285156 210.953125 L 87.34375 211.003906 L 87.40625 211.066406 C 87.382812 211.457031 87.144531 211.503906 86.878906 211.640625 L 86.820312 211.699219 C 86.742188 211.816406 86.625 211.9375 86.734375 212.183594 C 86.839844 212.4375 86.929688 212.210938 86.933594 212.621094 L 86.878906 212.675781 L 86.878906 212.90625 L 86.933594 212.96875 L 86.996094 213.027344 L 87.050781 213.082031 C 87.207031 213.117188 87.21875 213.132812 87.34375 213.199219 L 87.40625 213.253906 C 87.699219 213.464844 87.992188 213.648438 88.222656 213.9375 C 88.398438 214.15625 88.664062 214.621094 88.734375 214.925781 L 88.792969 214.980469 C 88.839844 215.179688 89.042969 215.558594 89.140625 215.730469 C 89.210938 215.847656 89.296875 215.960938 89.367188 216.082031 C 89.464844 216.238281 89.515625 216.289062 89.601562 216.425781 L 89.660156 216.480469 C 90.105469 217.128906 90.695312 217.707031 91.34375 218.152344 L 91.402344 218.207031 C 91.652344 218.378906 91.742188 218.460938 92.039062 218.609375 L 92.097656 218.667969 L 92.558594 218.898438 C 92.664062 218.898438 92.644531 218.871094 92.644531 218.957031 C 92.832031 219.011719 92.875 219.082031 93.082031 219.128906 L 93.144531 219.1875 C 93.566406 219.289062 94.03125 219.914062 94.070312 220.414062 C 94.191406 220.558594 94.125 221.296875 94.125 221.550781 L 94.089844 222.679688 C 94.089844 222.671875 94.074219 222.707031 94.070312 222.722656 L 94.070312 222.988281 L 94.011719 223.050781 C 94.003906 223.34375 93.921875 223.355469 93.890625 223.621094 L 93.835938 223.675781 C 93.792969 223.859375 93.761719 223.847656 93.71875 224.023438 L 93.664062 224.082031 C 93.585938 224.238281 93.496094 224.492188 93.484375 224.714844 L 93.484375 225.351562 C 93.492188 225.636719 93.542969 225.640625 93.550781 225.925781 C 93.558594 226.238281 93.488281 226.3125 93.496094 226.558594 L 93.429688 226.664062 C 93.359375 226.816406 93.300781 226.867188 93.253906 227.019531 L 93.199219 227.074219 C 93.148438 227.289062 93.105469 227.242188 93.082031 227.480469 L 93.023438 227.609375 L 93.023438 227.769531 L 92.964844 227.878906 L 92.964844 228.519531 L 93.023438 228.632812 L 93.023438 228.785156 L 93.082031 228.921875 C 93.125 229.105469 93.179688 229.175781 93.199219 229.375 L 93.253906 229.496094 C 93.257812 229.863281 93.320312 229.832031 93.269531 230.140625 C 93.242188 230.316406 93.203125 230.40625 93.164062 230.503906 C 94.371094 230.730469 95.597656 230.902344 96.839844 231.011719 C 96.8125 230.8125 96.773438 230.914062 96.851562 230.59375 C 96.851562 230.488281 96.820312 230.507812 96.910156 230.507812 C 97.210938 230.195312 97.523438 229.742188 98.113281 229.726562 L 98.242188 229.671875 C 98.523438 229.667969 98.554688 229.648438 98.734375 229.523438 C 98.953125 229.375 98.9375 229.367188 99.054688 229.152344 L 99.113281 229.09375 L 99.167969 228.980469 L 99.230469 228.921875 L 99.34375 228.808594 L 99.613281 228.691406 C 99.613281 228.605469 99.59375 228.632812 99.691406 228.632812 L 99.804688 228.632812 C 99.847656 228.609375 99.832031 228.601562 99.925781 228.585938 L 100.296875 228.613281 C 100.304688 228.601562 100.324219 228.625 100.335938 228.632812 L 100.445312 228.632812 C 100.542969 228.632812 100.523438 228.605469 100.523438 228.691406 L 101.023438 228.691406 L 101.082031 228.632812 C 101.5 228.597656 101.675781 228.261719 101.871094 227.976562 C 102.0625 227.695312 102.398438 227.453125 102.757812 227.367188 L 102.824219 227.308594 C 103 227.269531 102.992188 227.234375 103.164062 227.195312 L 103.226562 227.136719 C 103.445312 227.078125 103.300781 227.078125 103.519531 227.019531 L 103.578125 226.964844 C 103.726562 226.882812 103.832031 226.8125 103.980469 226.734375 L 104.039062 226.671875 C 104.625 226.3125 105.28125 225.636719 105.664062 225.0625 L 105.71875 225 L 105.777344 224.945312 C 105.867188 224.890625 105.921875 224.84375 106.023438 224.785156 C 106.144531 224.714844 106.183594 224.714844 106.300781 224.660156 L 106.359375 224.601562 C 106.578125 224.542969 106.59375 224.476562 106.652344 224.257812 L 106.707031 224.175781 L 106.707031 223.621094 L 106.765625 223.5625 C 106.78125 223.371094 106.8125 223.347656 106.878906 223.21875 L 106.9375 223.160156 L 107.171875 222.933594 L 107.230469 222.871094 L 107.339844 222.816406 L 107.402344 222.757812 L 107.449219 222.757812 L 107.519531 222.703125 C 107.714844 222.652344 107.800781 222.589844 108.042969 222.585938 L 108.097656 222.53125 L 108.222656 222.527344 L 108.332031 222.472656 C 108.578125 222.449219 108.605469 222.375 108.851562 222.355469 L 108.910156 222.296875 C 109.148438 222.242188 109.273438 222.132812 109.589844 222.125 C 109.675781 222.082031 109.511719 222.117188 109.722656 222.074219 C 109.761719 222.066406 109.855469 222.070312 109.894531 222.070312 C 110.457031 222.0625 110.542969 222.011719 110.878906 221.777344 L 110.941406 221.722656 L 110.996094 221.667969 L 111.050781 221.605469 L 111.113281 221.546875 C 111.21875 221.390625 111.324219 221.277344 111.34375 221.03125 C 111.34375 220.9375 111.316406 220.957031 111.402344 220.957031 C 111.4375 220.835938 111.46875 220.734375 111.519531 220.628906 C 111.519531 220.535156 111.492188 220.550781 111.578125 220.550781 C 111.691406 220.378906 111.765625 220.316406 111.867188 220.167969 L 111.925781 220.105469 C 112.003906 219.992188 112.078125 219.878906 112.15625 219.761719 C 112.15625 219.671875 112.132812 219.691406 112.214844 219.691406 C 112.320312 219.519531 112.570312 219.148438 112.621094 218.957031 C 112.621094 218.855469 112.589844 218.875 112.679688 218.875 C 112.722656 218.722656 112.753906 218.722656 112.796875 218.554688 C 112.796875 218.453125 112.765625 218.46875 112.851562 218.46875 L 112.855469 218.378906 L 112.910156 218.324219 C 112.953125 218.136719 113.007812 218.070312 113.027344 217.863281 L 113.085938 217.746094 C 113.105469 217.476562 113.195312 217.3125 113.207031 217 C 113.207031 216.949219 113.203125 216.878906 113.210938 216.832031 C 113.226562 216.722656 113.226562 216.765625 113.257812 216.714844 L 113.257812 216.597656 L 113.316406 216.476562 C 113.351562 216.339844 113.378906 216.25 113.433594 216.136719 L 113.488281 216.074219 L 113.546875 215.960938 L 113.601562 215.898438 L 113.667969 215.847656 L 113.722656 215.792969 C 114 215.597656 114.105469 215.394531 114.441406 215.179688 C 114.863281 214.90625 114.878906 214.894531 115.113281 214.464844 L 115.171875 214.398438 C 115.234375 214.152344 115.339844 214.003906 115.34375 213.714844 C 115.34375 213.4375 115.34375 213.601562 115.402344 213.539062 L 115.402344 212.589844 C 115.316406 212.589844 115.34375 212.609375 115.34375 212.507812 L 115.289062 212.394531 L 115.230469 212.332031 L 115.171875 212.277344 L 115.109375 212.21875 C 115.035156 212.171875 115.050781 212.179688 114.941406 212.160156 C 114.796875 212.160156 114.617188 212.195312 114.550781 212.101562 C 114.066406 212.09375 113.9375 211.933594 113.648438 211.714844 C 113.445312 211.5625 113.035156 211.3125 112.738281 211.304688 L 112.632812 211.238281 C 112.339844 211.234375 112.097656 211.132812 111.808594 211.121094 L 111.6875 211.066406 L 111.578125 211.066406 C 111.484375 211.066406 111.5 211.09375 111.5 211.007812 C 111.214844 210.980469 110.554688 210.714844 110.320312 210.585938 C 110 210.414062 109.613281 210.113281 109.257812 210.027344 C 109.160156 210.027344 109.179688 210.054688 109.179688 209.972656 L 108.792969 209.855469 C 108.703125 209.855469 108.71875 209.882812 108.71875 209.800781 L 108.621094 209.800781 C 108.523438 209.800781 108.539062 209.828125 108.539062 209.742188 C 108.300781 209.71875 108.199219 209.628906 107.925781 209.628906 L 107.761719 209.570312 C 107.476562 209.5625 107.265625 209.507812 106.878906 209.511719 C 106.4375 209.519531 106.253906 209.597656 106.242188 209.164062 L 106.300781 209.105469 C 106.589844 208.523438 105.949219 208.558594 105.894531 207.96875 L 105.839844 207.898438 L 105.835938 207.839844 L 105.777344 207.726562 C 105.648438 207.15625 105.082031 206.65625 104.621094 206.398438 L 104.5625 206.34375 C 104.425781 206.269531 104.410156 206.242188 104.214844 206.226562 L 104.15625 206.167969 C 103.726562 206.136719 103.589844 205.992188 103.027344 206.085938 C 102.269531 206.214844 101.835938 206.085938 101.242188 205.496094 C 100.890625 205.148438 100.9375 204.960938 100.675781 204.789062 L 100.613281 204.730469 C 100.464844 204.644531 100.367188 204.574219 100.15625 204.554688 C 100.101562 204.554688 100.035156 204.558594 99.980469 204.550781 C 99.734375 204.515625 99.953125 204.554688 99.84375 204.5 C 99.648438 204.496094 99.535156 204.449219 99.402344 204.386719 L 99.285156 204.269531 C 99.191406 204.078125 99.164062 203.835938 98.976562 203.714844 C 98.890625 203.660156 98.425781 203.53125 98.300781 203.519531 L 98.242188 203.460938 C 98.125 203.382812 98.0625 203.332031 97.894531 203.289062 L 97.839844 203.230469 C 97.578125 203.230469 97.285156 203.210938 97.0625 203.269531 C 96.6875 203.367188 96.773438 203.378906 96.386719 203.289062 L 96.328125 203.230469 C 96.210938 203.152344 96.171875 203.128906 96.039062 203.0625 C 95.949219 203.0625 95.96875 203.085938 95.96875 203 C 95.851562 202.972656 95.570312 202.898438 95.460938 202.902344 C 95.296875 202.902344 95.136719 202.984375 94.9375 203 C 94.878906 203.09375 94.9375 203.09375 94.875 203 C 94.613281 202.980469 94.613281 202.855469 94.417969 202.710938 C 94.265625 202.601562 94.085938 202.5 93.832031 202.480469 C 93.28125 202.445312 93.03125 202.726562 92.847656 203.058594 L 92.792969 203.128906 L 92.792969 203.347656 L 92.734375 203.40625 L 92.734375 203.515625 L 92.792969 203.578125 L 92.792969 203.867188 C 92.65625 203.863281 92.527344 203.886719 92.355469 203.667969 C 92.277344 203.566406 92.304688 203.652344 92.269531 203.5 L 92.203125 203.40625 C 92.226562 203.070312 92.15625 202.980469 92.152344 202.65625 C 92.152344 202.320312 92.101562 202.160156 92.097656 201.90625 L 92.042969 201.851562 C 92 201.691406 91.945312 201.574219 91.855469 201.457031 C 91.734375 201.296875 91.835938 201.414062 91.714844 201.308594 C 91.632812 201.234375 91.59375 201.210938 91.515625 201.160156 L 91.457031 201.101562 L 91.402344 201.101562 C 91.3125 201.101562 91.332031 201.125 91.332031 201.042969 C 91.191406 201.007812 91.183594 200.992188 90.996094 200.984375 L 90.414062 200.984375 C 90.171875 201.003906 90.226562 201.050781 90.007812 201.101562 L 89.953125 201.15625 C 89.515625 201.265625 89.367188 201.378906 88.90625 201.160156 L 88.851562 201.101562 C 88.5 200.867188 88.503906 200.875 88.269531 200.527344 L 88.210938 200.46875 C 88.128906 200.308594 88.085938 200.207031 88.039062 200.007812 L 87.980469 199.949219 C 87.980469 199.527344 87.882812 199.367188 87.960938 198.894531 C 88.039062 198.445312 88.097656 198.367188 88.097656 197.828125 C 88.011719 197.828125 88.035156 197.847656 88.035156 197.761719 C 88.019531 197.53125 87.941406 197.433594 87.824219 197.28125 C 87.675781 197.085938 87.648438 197.078125 87.457031 196.957031 L 87.398438 196.894531 C 87.160156 196.839844 87.242188 196.789062 86.9375 196.78125 L 85.71875 196.78125 C 85.632812 196.78125 85.644531 196.78125 85.5625 196.761719 C 85.554688 196.761719 85.53125 196.761719 85.527344 196.746094 C 85.519531 196.730469 85.503906 196.730469 85.496094 196.722656 L 85.371094 196.722656 L 85.3125 196.664062 C 84.832031 196.554688 84.804688 196.125 84.851562 195.515625 C 84.867188 195.320312 84.925781 195.023438 84.976562 194.835938 C 85.035156 194.617188 85.144531 194.398438 85.199219 194.1875 L 85.253906 194.132812 C 85.382812 193.898438 85.445312 193.820312 85.613281 193.621094 C 85.800781 193.394531 85.855469 193.371094 85.777344 193.039062 C 85.214844 192.90625 84.640625 192.992188 84.136719 193.09375 L 84.039062 193.167969 C 83.75 193.207031 83.578125 193.4375 83.519531 193.730469 C 83.519531 193.855469 83.550781 193.933594 83.457031 193.992188 C 83.4375 194.277344 83.355469 194.484375 83.230469 194.652344 C 83.101562 194.824219 82.902344 194.976562 82.625 194.996094 C 82.523438 195.085938 82.527344 195.054688 82.355469 195.054688 L 81.777344 195.054688 C 81.691406 195.054688 81.691406 195.054688 81.613281 195.039062 C 81.601562 195.035156 81.578125 195.035156 81.570312 195.019531 C 81.5625 195.003906 81.546875 195.003906 81.53125 194.996094 C 80.847656 194.996094 80.253906 194.539062 79.980469 194.132812 L 79.921875 194.074219 C 79.789062 193.878906 79.695312 193.785156 79.574219 193.558594 L 79.515625 193.5 L 79.285156 192.996094 C 79.199219 192.996094 79.226562 193.015625 79.226562 192.921875 C 79.183594 192.742188 79.125 192.527344 79.109375 192.324219 L 79.042969 192.171875 L 79.050781 191.308594 L 79.109375 191.1875 C 79.164062 190.558594 79.679688 190.492188 79.6875 189.8125 C 79.6875 189.71875 79.664062 189.738281 79.746094 189.738281 L 79.75 189.640625 L 79.804688 189.578125 L 79.863281 189.351562 L 79.921875 189.285156 L 79.925781 189.234375 L 79.980469 189.179688 C 80.214844 188.726562 80.570312 188.378906 81.023438 188.140625 L 81.082031 188.085938 C 81.261719 188.042969 81.246094 188.011719 81.433594 187.96875 L 81.488281 187.914062 L 81.539062 187.910156 L 81.660156 187.859375 C 81.992188 187.816406 82.117188 187.734375 82.527344 187.734375 C 82.847656 187.734375 83.171875 187.738281 83.492188 187.738281 L 83.632812 187.679688 C 83.894531 187.675781 83.9375 187.613281 84.15625 187.566406 L 84.210938 187.511719 C 84.398438 187.460938 84.574219 187.367188 84.722656 187.277344 L 84.792969 187.21875 C 85.410156 186.890625 85.808594 186.824219 86.472656 187.160156 L 86.535156 187.21875 C 86.910156 187.484375 86.945312 187.371094 87.402344 187.335938 L 87.457031 187.277344 L 87.863281 187.277344 L 87.921875 187.335938 C 88.140625 187.449219 88.257812 187.574219 88.328125 187.839844 L 88.382812 187.910156 C 88.457031 188.207031 88.503906 188.273438 88.503906 188.65625 L 88.558594 188.71875 L 88.558594 188.835938 L 88.613281 188.890625 C 88.640625 189.113281 88.816406 189.46875 88.90625 189.636719 L 88.964844 189.695312 C 89.160156 190.058594 89.328125 190.222656 89.660156 190.445312 L 89.730469 190.503906 C 89.980469 190.496094 90.039062 190.425781 90.183594 190.332031 L 90.183594 189.289062 L 90.121094 189.179688 L 90.125 188.96875 L 90.066406 188.832031 C 90.0625 188.597656 89.996094 188.453125 89.953125 188.253906 L 89.898438 188.199219 C 89.875 188.011719 89.78125 187.757812 89.71875 187.613281 L 89.660156 187.507812 C 89.640625 187.210938 89.546875 187.226562 89.546875 186.839844 L 89.492188 186.703125 L 89.492188 186.527344 C 89.492188 186.296875 89.503906 186.398438 89.546875 186.347656 C 89.550781 186.140625 89.59375 186.035156 89.660156 185.894531 L 89.71875 185.835938 C 89.84375 185.652344 90.003906 185.46875 90.199219 185.332031 C 90.363281 185.21875 90.648438 185.0625 90.820312 184.972656 L 90.878906 184.917969 C 91.390625 184.570312 91.832031 184.171875 92.148438 183.648438 C 92.148438 183.566406 92.128906 183.585938 92.214844 183.585938 C 92.34375 183.355469 92.554688 183.066406 92.617188 182.785156 L 92.675781 182.722656 C 92.730469 182.5 92.839844 182.328125 92.839844 182.09375 Z M 87.398438 162.335938 C 87.324219 162.402344 87.335938 162.414062 87.203125 162.441406 C 86.929688 162.5 87.023438 162.445312 87.042969 162.394531 L 87.109375 162.335938 L 87.398438 162.335938 " clip-rule="nonzero"/></clipPath><radialGradient gradientTransform="matrix(1.003262, 0, 0, 0.996738, 88.011026, 179.722286)" gradientUnits="userSpaceOnUse" r="51.501298" cx="0" id="168ef7a9a6" cy="0" fx="0" fy="0"><stop stop-opacity="1" stop-color="rgb(99.804688%, 99.804688%, 99.804688%)" offset="0"/><stop stop-opacity="1" stop-color="rgb(99.539185%, 99.539185%, 99.539185%)" offset="0.015625"/><stop stop-opacity="1" stop-color="rgb(99.334717%, 99.334717%, 99.334717%)" offset="0.0195312"/><stop stop-opacity="1" stop-color="rgb(99.133301%, 99.133301%, 99.133301%)" offset="0.03125"/><stop stop-opacity="1" stop-color="rgb(98.933411%, 98.933411%, 98.933411%)" offset="0.0429688"/><stop stop-opacity="1" stop-color="rgb(98.736572%, 98.736572%, 98.736572%)" offset="0.0546875"/><stop stop-opacity="1" stop-color="rgb(98.603821%, 98.603821%, 98.603821%)" offset="0.0664062"/><stop stop-opacity="1" stop-color="rgb(98.461914%, 98.461914%, 98.461914%)" offset="0.0703125"/><stop stop-opacity="1" stop-color="rgb(98.196411%, 98.196411%, 98.196411%)" offset="0.0742188"/><stop stop-opacity="1" stop-color="rgb(97.999573%, 97.999573%, 97.999573%)" offset="0.0859375"/><stop stop-opacity="1" stop-color="rgb(97.93396%, 97.93396%, 97.93396%)" offset="0.0976562"/><stop stop-opacity="1" stop-color="rgb(97.73407%, 97.73407%, 97.73407%)" offset="0.101562"/><stop stop-opacity="1" stop-color="rgb(97.549438%, 97.549438%, 97.549438%)" offset="0.113281"/><stop stop-opacity="1" stop-color="rgb(97.337341%, 97.337341%, 97.337341%)" offset="0.125"/><stop stop-opacity="1" stop-color="rgb(97.036743%, 97.036743%, 97.036743%)" offset="0.136719"/><stop stop-opacity="1" stop-color="rgb(96.829224%, 96.829224%, 96.829224%)" offset="0.148438"/><stop stop-opacity="1" stop-color="rgb(96.629333%, 96.629333%, 96.629333%)" offset="0.160156"/><stop stop-opacity="1" stop-color="rgb(96.434021%, 96.434021%, 96.434021%)" offset="0.171875"/><stop stop-opacity="1" stop-color="rgb(96.296692%, 96.296692%, 96.296692%)" offset="0.183594"/><stop stop-opacity="1" stop-color="rgb(96.156311%, 96.156311%, 96.156311%)" offset="0.1875"/><stop stop-opacity="1" stop-color="rgb(95.892334%, 95.892334%, 95.892334%)" offset="0.191406"/><stop stop-opacity="1" stop-color="rgb(95.506287%, 95.506287%, 95.506287%)" offset="0.214844"/><stop stop-opacity="1" stop-color="rgb(95.301819%, 95.301819%, 95.301819%)" offset="0.226562"/><stop stop-opacity="1" stop-color="rgb(95.094299%, 95.094299%, 95.094299%)" offset="0.238281"/><stop stop-opacity="1" stop-color="rgb(94.703674%, 94.703674%, 94.703674%)" offset="0.25"/><stop stop-opacity="1" stop-color="rgb(94.424438%, 94.424438%, 94.424438%)" offset="0.261719"/><stop stop-opacity="1" stop-color="rgb(94.258118%, 94.258118%, 94.258118%)" offset="0.269531"/><stop stop-opacity="1" stop-color="rgb(94.094849%, 94.094849%, 94.094849%)" offset="0.277344"/><stop stop-opacity="1" stop-color="rgb(93.937683%, 93.937683%, 93.937683%)" offset="0.285156"/><stop stop-opacity="1" stop-color="rgb(93.782043%, 93.782043%, 93.782043%)" offset="0.292969"/><stop stop-opacity="1" stop-color="rgb(93.621826%, 93.621826%, 93.621826%)" offset="0.300781"/><stop stop-opacity="1" stop-color="rgb(93.457031%, 93.457031%, 93.457031%)" offset="0.308594"/><stop stop-opacity="1" stop-color="rgb(93.293762%, 93.293762%, 93.293762%)" offset="0.316406"/><stop stop-opacity="1" stop-color="rgb(93.136597%, 93.136597%, 93.136597%)" offset="0.324219"/><stop stop-opacity="1" stop-color="rgb(92.979431%, 92.979431%, 92.979431%)" offset="0.332031"/><stop stop-opacity="1" stop-color="rgb(92.819214%, 92.819214%, 92.819214%)" offset="0.339844"/><stop stop-opacity="1" stop-color="rgb(92.556763%, 92.556763%, 92.556763%)" offset="0.347656"/><stop stop-opacity="1" stop-color="rgb(92.190552%, 92.190552%, 92.190552%)" offset="0.367188"/><stop stop-opacity="1" stop-color="rgb(91.902161%, 91.902161%, 91.902161%)" offset="0.386719"/><stop stop-opacity="1" stop-color="rgb(91.699219%, 91.699219%, 91.699219%)" offset="0.402344"/><stop stop-opacity="1" stop-color="rgb(91.50238%, 91.50238%, 91.50238%)" offset="0.417969"/><stop stop-opacity="1" stop-color="rgb(91.300964%, 91.300964%, 91.300964%)" offset="0.425781"/><stop stop-opacity="1" stop-color="rgb(91.093445%, 91.093445%, 91.093445%)" offset="0.433594"/><stop stop-opacity="1" stop-color="rgb(90.794373%, 90.794373%, 90.794373%)" offset="0.441406"/><stop stop-opacity="1" stop-color="rgb(90.403748%, 90.403748%, 90.403748%)" offset="0.457031"/><stop stop-opacity="1" stop-color="rgb(90.19928%, 90.19928%, 90.19928%)" offset="0.472656"/><stop stop-opacity="1" stop-color="rgb(89.996338%, 89.996338%, 89.996338%)" offset="0.488281"/><stop stop-opacity="1" stop-color="rgb(89.605713%, 89.605713%, 89.605713%)" offset="0.503906"/><stop stop-opacity="1" stop-color="rgb(89.399719%, 89.399719%, 89.399719%)" offset="0.515625"/><stop stop-opacity="1" stop-color="rgb(89.193726%, 89.193726%, 89.193726%)" offset="0.527344"/><stop stop-opacity="1" stop-color="rgb(88.999939%, 88.999939%, 88.999939%)" offset="0.539062"/><stop stop-opacity="1" stop-color="rgb(88.807678%, 88.807678%, 88.807678%)" offset="0.550781"/><stop stop-opacity="1" stop-color="rgb(88.545227%, 88.545227%, 88.545227%)" offset="0.5625"/><stop stop-opacity="1" stop-color="rgb(88.336182%, 88.336182%, 88.336182%)" offset="0.566406"/><stop stop-opacity="1" stop-color="rgb(88.134766%, 88.134766%, 88.134766%)" offset="0.578125"/><stop stop-opacity="1" stop-color="rgb(87.88147%, 87.88147%, 87.88147%)" offset="0.589844"/><stop stop-opacity="1" stop-color="rgb(87.528992%, 87.528992%, 87.528992%)" offset="0.613281"/><stop stop-opacity="1" stop-color="rgb(87.193298%, 87.193298%, 87.193298%)" offset="0.625"/><stop stop-opacity="1" stop-color="rgb(86.938477%, 86.938477%, 86.938477%)" offset="0.636719"/><stop stop-opacity="1" stop-color="rgb(86.773682%, 86.773682%, 86.773682%)" offset="0.644531"/><stop stop-opacity="1" stop-color="rgb(86.497498%, 86.497498%, 86.497498%)" offset="0.652344"/><stop stop-opacity="1" stop-color="rgb(86.219788%, 86.219788%, 86.219788%)" offset="0.671875"/><stop stop-opacity="1" stop-color="rgb(86.018372%, 86.018372%, 86.018372%)" offset="0.679688"/><stop stop-opacity="1" stop-color="rgb(85.800171%, 85.800171%, 85.800171%)" offset="0.699219"/><stop stop-opacity="1" stop-color="rgb(85.604858%, 85.604858%, 85.604858%)" offset="0.714844"/><stop stop-opacity="1" stop-color="rgb(85.403442%, 85.403442%, 85.403442%)" offset="0.722656"/><stop stop-opacity="1" stop-color="rgb(85.195923%, 85.195923%, 85.195923%)" offset="0.730469"/><stop stop-opacity="1" stop-color="rgb(84.896851%, 84.896851%, 84.896851%)" offset="0.738281"/><stop stop-opacity="1" stop-color="rgb(84.700012%, 84.700012%, 84.700012%)" offset="0.753906"/><stop stop-opacity="1" stop-color="rgb(84.634399%, 84.634399%, 84.634399%)" offset="0.765625"/><stop stop-opacity="1" stop-color="rgb(84.498596%, 84.498596%, 84.498596%)" offset="0.769531"/><stop stop-opacity="1" stop-color="rgb(84.358215%, 84.358215%, 84.358215%)" offset="0.773438"/><stop stop-opacity="1" stop-color="rgb(84.092712%, 84.092712%, 84.092712%)" offset="0.777344"/><stop stop-opacity="1" stop-color="rgb(83.706665%, 83.706665%, 83.706665%)" offset="0.789062"/><stop stop-opacity="1" stop-color="rgb(83.44574%, 83.44574%, 83.44574%)" offset="0.8125"/><stop stop-opacity="1" stop-color="rgb(83.235168%, 83.235168%, 83.235168%)" offset="0.816406"/><stop stop-opacity="1" stop-color="rgb(82.899475%, 82.899475%, 82.899475%)" offset="0.824219"/><stop stop-opacity="1" stop-color="rgb(82.698059%, 82.698059%, 82.698059%)" offset="0.84375"/><stop stop-opacity="1" stop-color="rgb(82.546997%, 82.546997%, 82.546997%)" offset="0.863281"/><stop stop-opacity="1" stop-color="rgb(82.2052%, 82.2052%, 82.2052%)" offset="0.878906"/><stop stop-opacity="1" stop-color="rgb(81.999207%, 81.999207%, 81.999207%)" offset="0.890625"/><stop stop-opacity="1" stop-color="rgb(81.793213%, 81.793213%, 81.793213%)" offset="0.902344"/><stop stop-opacity="1" stop-color="rgb(81.402588%, 81.402588%, 81.402588%)" offset="0.914062"/><stop stop-opacity="1" stop-color="rgb(81.103516%, 81.103516%, 81.103516%)" offset="0.933594"/><stop stop-opacity="1" stop-color="rgb(80.830383%, 80.830383%, 80.830383%)" offset="0.941406"/><stop stop-opacity="1" stop-color="rgb(80.488586%, 80.488586%, 80.488586%)" offset="0.953125"/><stop stop-opacity="1" stop-color="rgb(80.157471%, 80.157471%, 80.157471%)" offset="0.964844"/><stop stop-opacity="1" stop-color="rgb(79.998779%, 79.998779%, 79.998779%)" offset="1"/></radialGradient></defs><rect x="-37.5" width="450" fill="#ffffff" y="-37.499999" height="449.999989" fill-opacity="1"/><rect x="-37.5" width="450" fill="#99cc63" y="-37.499999" height="449.999989" fill-opacity="1"/><g clip-path="url(#7d46d76670)"><path fill="#39b54a" d="M 129.1875 144.761719 C 130.375 127.652344 114.015625 120.425781 114.015625 120.425781 C 105.210938 138.070312 117.332031 150.265625 123.109375 154.785156 C 123.308594 154.980469 123.53125 155.15625 123.78125 155.3125 C 156.972656 175.800781 178.21875 145.484375 178.21875 145.484375 C 158.308594 130.289062 139.835938 137.609375 129.1875 144.761719 " fill-opacity="1" fill-rule="nonzero"/></g><path fill="#231f20" d="M 141.230469 128.160156 L 141.234375 128.164062 L 141.230469 128.160156 " fill-opacity="1" fill-rule="nonzero"/><g clip-path="url(#57cc52ebf7)"><path fill="#009245" d="M 177.765625 145.144531 C 158.359375 130.65625 140.371094 137.4375 129.730469 144.414062 C 129.507812 144.5625 129.214844 144.390625 129.226562 144.125 C 129.269531 143.167969 129.257812 142.242188 129.195312 141.347656 C 128.886719 138.398438 128.121094 135.300781 126.625 132.3125 C 123.371094 126.15625 117.945312 122.566406 115.40625 121.144531 L 115.402344 121.140625 C 115.121094 120.988281 114.828125 120.835938 114.535156 120.683594 C 114.261719 120.863281 114.324219 120.820312 114.054688 121 C 114.710938 129.371094 119.179688 141.742188 122.835938 149.484375 C 122.886719 149.59375 122.875 149.722656 122.800781 149.820312 C 122.253906 150.519531 121.992188 151.363281 122.007812 152.203125 C 122.011719 152.351562 122.117188 152.480469 122.265625 152.515625 C 122.832031 152.640625 123.539062 152.75 124.363281 152.835938 C 124.46875 152.847656 124.910156 152.875 124.910156 152.875 L 125.6875 152.984375 L 126.328125 153.019531 L 127.023438 153.050781 L 127.3125 153.050781 C 127.3125 153.050781 127.488281 153.046875 127.628906 153.050781 C 139.636719 153.476562 164.160156 151.246094 177.691406 145.707031 C 177.929688 145.609375 177.96875 145.296875 177.765625 145.144531 M 142.769531 192.699219 C 142.769531 216.160156 123.679688 235.179688 100.132812 235.179688 C 76.582031 235.179688 57.492188 216.160156 57.492188 192.699219 C 57.492188 169.238281 76.582031 150.21875 100.132812 150.21875 C 123.679688 150.21875 142.769531 169.238281 142.769531 192.699219 " fill-opacity="1" fill-rule="evenodd"/></g><path fill="#b2b2b2" d="M 129.246094 144.253906 C 129.230469 144.214844 129.222656 144.171875 129.226562 144.125 C 129.269531 143.167969 129.257812 142.242188 129.195312 141.347656 C 129.195312 141.34375 129.195312 141.339844 129.195312 141.335938 C 129.171875 141.019531 129.144531 140.703125 129.109375 140.394531 C 129.117188 140.386719 129.125 140.382812 129.128906 140.378906 C 129.265625 141.609375 129.3125 142.898438 129.246094 144.253906 " fill-opacity="1" fill-rule="nonzero"/><path fill="#287e34" d="M 123.582031 155.121094 C 123.488281 155.066406 123.398438 155.007812 123.3125 154.9375 C 122.046875 153.960938 120.449219 152.597656 118.828125 150.875 C 119.074219 149.425781 119.773438 148.085938 120.875 147.023438 C 121.070312 146.832031 121.269531 146.644531 121.46875 146.457031 C 121.929688 147.523438 122.386719 148.539062 122.835938 149.484375 C 122.867188 149.550781 122.875 149.625 122.859375 149.695312 C 122.367188 150.292969 122.09375 151 122.03125 151.714844 C 122.011719 151.878906 122.007812 152.039062 122.007812 152.203125 C 122.011719 152.230469 122.015625 152.257812 122.019531 152.285156 C 122.085938 153.375 122.621094 154.433594 123.582031 155.121094 M 129.195312 141.335938 C 129.164062 141.027344 129.125 140.71875 129.082031 140.410156 C 129.089844 140.40625 129.101562 140.398438 129.109375 140.394531 C 129.144531 140.703125 129.171875 141.019531 129.195312 141.335938 " fill-opacity="1" fill-rule="nonzero"/><path fill="#006630" d="M 122.019531 152.285156 C 122.015625 152.257812 122.011719 152.230469 122.007812 152.203125 C 122.007812 152.039062 122.011719 151.878906 122.03125 151.714844 C 122.011719 151.90625 122.011719 152.09375 122.019531 152.285156 M 122.859375 149.695312 C 122.875 149.625 122.867188 149.550781 122.835938 149.484375 C 122.386719 148.539062 121.929688 147.523438 121.46875 146.457031 C 123.933594 144.132812 126.476562 142.113281 129.082031 140.410156 C 129.125 140.71875 129.164062 141.027344 129.195312 141.335938 C 129.195312 141.339844 129.195312 141.34375 129.195312 141.347656 C 129.257812 142.242188 129.269531 143.167969 129.226562 144.125 C 129.222656 144.171875 129.230469 144.214844 129.246094 144.253906 C 129.246094 144.257812 129.242188 144.261719 129.242188 144.265625 C 127.226562 145.710938 125.195312 147.40625 123.160156 149.371094 C 123.050781 149.476562 122.953125 149.582031 122.859375 149.695312 " fill-opacity="1" fill-rule="nonzero"/><g clip-path="url(#c08249156b)"><g clip-path="url(#adc49481fa)"><path fill="url(#168ef7a9a6)" d="M 66.859375 154.109375 L 66.859375 231.011719 L 139.179688 231.011719 L 139.179688 154.109375 Z M 66.859375 154.109375 " fill-rule="nonzero"/></g></g><g fill="#009245" fill-opacity="1"><g transform="translate(150.235967, 201.799967)"><g><path d="M 9.71875 -7.59375 L 9.71875 -6.078125 L 18.84375 -6.078125 L 18.84375 0 L 1.828125 0 L 1.828125 -21.28125 L 18.234375 -21.28125 L 18.234375 -15.203125 L 9.71875 -15.203125 L 9.71875 -13.671875 L 17.625 -13.671875 L 17.625 -7.59375 Z M 9.71875 -7.59375 "/></g></g></g><g fill="#009245" fill-opacity="1"><g transform="translate(168.619635, 201.799967)"><g><path d="M 1.21875 -10.640625 C 1.21875 -12.203125 1.5 -13.65625 2.0625 -15 C 2.632812 -16.34375 3.429688 -17.515625 4.453125 -18.515625 C 5.472656 -19.523438 6.660156 -20.3125 8.015625 -20.875 C 9.378906 -21.445312 10.859375 -21.734375 12.453125 -21.734375 C 13.898438 -21.734375 15.160156 -21.5625 16.234375 -21.21875 C 17.304688 -20.882812 18.191406 -20.492188 18.890625 -20.046875 C 19.585938 -19.609375 20.109375 -19.222656 20.453125 -18.890625 C 20.796875 -18.554688 20.96875 -18.390625 20.96875 -18.390625 L 17.328125 -12.609375 C 17.328125 -12.609375 17.144531 -12.75 16.78125 -13.03125 C 16.414062 -13.320312 15.929688 -13.601562 15.328125 -13.875 C 14.734375 -14.144531 14.082031 -14.28125 13.375 -14.28125 C 12.320312 -14.28125 11.445312 -13.941406 10.75 -13.265625 C 10.0625 -12.585938 9.71875 -11.710938 9.71875 -10.640625 C 9.71875 -9.585938 10.0625 -8.710938 10.75 -8.015625 C 11.445312 -7.328125 12.320312 -6.984375 13.375 -6.984375 C 14.082031 -6.984375 14.734375 -7.125 15.328125 -7.40625 C 15.929688 -7.695312 16.414062 -7.976562 16.78125 -8.25 C 17.144531 -8.519531 17.328125 -8.65625 17.328125 -8.65625 L 20.96875 -2.890625 C 20.96875 -2.890625 20.796875 -2.722656 20.453125 -2.390625 C 20.109375 -2.054688 19.585938 -1.664062 18.890625 -1.21875 C 18.191406 -0.769531 17.304688 -0.378906 16.234375 -0.046875 C 15.160156 0.285156 13.898438 0.453125 12.453125 0.453125 C 10.859375 0.453125 9.378906 0.171875 8.015625 -0.390625 C 6.660156 -0.960938 5.472656 -1.75 4.453125 -2.75 C 3.429688 -3.75 2.632812 -4.921875 2.0625 -6.265625 C 1.5 -7.617188 1.21875 -9.078125 1.21875 -10.640625 Z M 1.21875 -10.640625 "/></g></g></g><g fill="#009245" fill-opacity="1"><g transform="translate(188.826507, 201.799967)"><g><path d="M 16.40625 -10.640625 C 16.40625 -11.710938 16.078125 -12.585938 15.421875 -13.265625 C 14.765625 -13.941406 13.976562 -14.28125 13.0625 -14.28125 C 12.15625 -14.28125 11.367188 -13.941406 10.703125 -13.265625 C 10.046875 -12.585938 9.71875 -11.710938 9.71875 -10.640625 C 9.71875 -9.585938 10.046875 -8.710938 10.703125 -8.015625 C 11.367188 -7.328125 12.15625 -6.984375 13.0625 -6.984375 C 13.976562 -6.984375 14.765625 -7.328125 15.421875 -8.015625 C 16.078125 -8.710938 16.40625 -9.585938 16.40625 -10.640625 Z M 24.921875 -10.640625 C 24.921875 -9.078125 24.628906 -7.617188 24.046875 -6.265625 C 23.472656 -4.921875 22.660156 -3.75 21.609375 -2.75 C 20.554688 -1.75 19.304688 -0.960938 17.859375 -0.390625 C 16.410156 0.171875 14.8125 0.453125 13.0625 0.453125 C 11.320312 0.453125 9.726562 0.171875 8.28125 -0.390625 C 6.832031 -0.960938 5.582031 -1.75 4.53125 -2.75 C 3.476562 -3.75 2.660156 -4.921875 2.078125 -6.265625 C 1.503906 -7.617188 1.21875 -9.078125 1.21875 -10.640625 C 1.21875 -12.203125 1.503906 -13.65625 2.078125 -15 C 2.660156 -16.34375 3.476562 -17.515625 4.53125 -18.515625 C 5.582031 -19.523438 6.832031 -20.3125 8.28125 -20.875 C 9.726562 -21.445312 11.320312 -21.734375 13.0625 -21.734375 C 14.8125 -21.734375 16.410156 -21.445312 17.859375 -20.875 C 19.304688 -20.3125 20.554688 -19.523438 21.609375 -18.515625 C 22.660156 -17.515625 23.472656 -16.34375 24.046875 -15 C 24.628906 -13.65625 24.921875 -12.203125 24.921875 -10.640625 Z M 24.921875 -10.640625 "/></g></g></g><g fill="#009245" fill-opacity="1"><g transform="translate(213.5914, 201.799967)"><g><path d="M 16.40625 -11.25 L 16.40625 -11.09375 C 16.40625 -11.09375 16.566406 -11.050781 16.890625 -10.96875 C 17.222656 -10.882812 17.628906 -10.738281 18.109375 -10.53125 C 18.597656 -10.320312 19.082031 -10.019531 19.5625 -9.625 C 20.050781 -9.226562 20.457031 -8.710938 20.78125 -8.078125 C 21.113281 -7.453125 21.28125 -6.6875 21.28125 -5.78125 C 21.28125 -4.664062 20.941406 -3.644531 20.265625 -2.71875 C 19.597656 -1.800781 18.507812 -1.066406 17 -0.515625 C 15.488281 0.0234375 13.46875 0.296875 10.9375 0.296875 C 9.320312 0.296875 7.816406 0.269531 6.421875 0.21875 C 5.035156 0.175781 3.921875 0.128906 3.078125 0.078125 C 2.242188 0.0234375 1.828125 0 1.828125 0 L 1.828125 -21.28125 C 1.828125 -21.28125 2.242188 -21.300781 3.078125 -21.34375 C 3.921875 -21.394531 5.023438 -21.445312 6.390625 -21.5 C 7.765625 -21.550781 9.226562 -21.578125 10.78125 -21.578125 C 13.070312 -21.578125 14.914062 -21.300781 16.3125 -20.75 C 17.71875 -20.207031 18.742188 -19.488281 19.390625 -18.59375 C 20.035156 -17.707031 20.359375 -16.726562 20.359375 -15.65625 C 20.359375 -14.738281 20.160156 -13.988281 19.765625 -13.40625 C 19.367188 -12.832031 18.90625 -12.390625 18.375 -12.078125 C 17.851562 -11.765625 17.394531 -11.546875 17 -11.421875 C 16.601562 -11.304688 16.40625 -11.25 16.40625 -11.25 Z M 9.71875 -16.109375 L 9.71875 -13.375 L 10.78125 -13.375 C 11.3125 -13.375 11.722656 -13.503906 12.015625 -13.765625 C 12.304688 -14.023438 12.453125 -14.347656 12.453125 -14.734375 C 12.453125 -15.117188 12.304688 -15.441406 12.015625 -15.703125 C 11.722656 -15.972656 11.3125 -16.109375 10.78125 -16.109375 Z M 10.9375 -5.171875 C 11.550781 -5.171875 12.007812 -5.3125 12.3125 -5.59375 C 12.613281 -5.875 12.765625 -6.238281 12.765625 -6.6875 C 12.765625 -7.15625 12.613281 -7.523438 12.3125 -7.796875 C 12.007812 -8.066406 11.550781 -8.203125 10.9375 -8.203125 L 9.71875 -8.203125 L 9.71875 -5.171875 C 9.71875 -5.171875 9.84375 -5.171875 10.09375 -5.171875 C 10.351562 -5.171875 10.632812 -5.171875 10.9375 -5.171875 Z M 10.9375 -5.171875 "/></g></g></g><g fill="#009245" fill-opacity="1"><g transform="translate(234.406009, 201.799967)"><g><path d="M 9.71875 -21.28125 L 9.71875 0 L 1.828125 0 L 1.828125 -21.28125 Z M 9.71875 -21.28125 "/></g></g></g><g fill="#009245" fill-opacity="1"><g transform="translate(244.585259, 201.799967)"><g><path d="M 16.40625 -10.640625 C 16.40625 -11.710938 16.078125 -12.585938 15.421875 -13.265625 C 14.765625 -13.941406 13.976562 -14.28125 13.0625 -14.28125 C 12.15625 -14.28125 11.367188 -13.941406 10.703125 -13.265625 C 10.046875 -12.585938 9.71875 -11.710938 9.71875 -10.640625 C 9.71875 -9.585938 10.046875 -8.710938 10.703125 -8.015625 C 11.367188 -7.328125 12.15625 -6.984375 13.0625 -6.984375 C 13.976562 -6.984375 14.765625 -7.328125 15.421875 -8.015625 C 16.078125 -8.710938 16.40625 -9.585938 16.40625 -10.640625 Z M 24.921875 -10.640625 C 24.921875 -9.078125 24.628906 -7.617188 24.046875 -6.265625 C 23.472656 -4.921875 22.660156 -3.75 21.609375 -2.75 C 20.554688 -1.75 19.304688 -0.960938 17.859375 -0.390625 C 16.410156 0.171875 14.8125 0.453125 13.0625 0.453125 C 11.320312 0.453125 9.726562 0.171875 8.28125 -0.390625 C 6.832031 -0.960938 5.582031 -1.75 4.53125 -2.75 C 3.476562 -3.75 2.660156 -4.921875 2.078125 -6.265625 C 1.503906 -7.617188 1.21875 -9.078125 1.21875 -10.640625 C 1.21875 -12.203125 1.503906 -13.65625 2.078125 -15 C 2.660156 -16.34375 3.476562 -17.515625 4.53125 -18.515625 C 5.582031 -19.523438 6.832031 -20.3125 8.28125 -20.875 C 9.726562 -21.445312 11.320312 -21.734375 13.0625 -21.734375 C 14.8125 -21.734375 16.410156 -21.445312 17.859375 -20.875 C 19.304688 -20.3125 20.554688 -19.523438 21.609375 -18.515625 C 22.660156 -17.515625 23.472656 -16.34375 24.046875 -15 C 24.628906 -13.65625 24.921875 -12.203125 24.921875 -10.640625 Z M 24.921875 -10.640625 "/></g></g></g><g fill="#009245" fill-opacity="1"><g transform="translate(269.350152, 201.799967)"><g><path d="M 19.75 0 L 13.375 0 L 9.71875 -11.859375 L 9.71875 0 L 1.828125 0 L 1.828125 -21.28125 L 13.0625 -21.28125 L 16.5625 -9.71875 L 20.0625 -21.28125 L 31.296875 -21.28125 L 31.296875 0 L 23.40625 0 L 23.40625 -11.859375 Z M 19.75 0 "/></g></g></g><g fill="#009245" fill-opacity="1"><g transform="translate(301.103991, 201.799967)"><g><path d="M 16.859375 -21.28125 C 16.859375 -21.257812 16.945312 -20.941406 17.125 -20.328125 C 17.3125 -19.722656 17.550781 -18.910156 17.84375 -17.890625 C 18.144531 -16.878906 18.476562 -15.742188 18.84375 -14.484375 C 19.207031 -13.234375 19.585938 -11.929688 19.984375 -10.578125 C 20.378906 -9.234375 20.765625 -7.929688 21.140625 -6.671875 C 21.515625 -5.421875 21.847656 -4.296875 22.140625 -3.296875 C 22.429688 -2.296875 22.660156 -1.492188 22.828125 -0.890625 C 23.003906 -0.296875 23.09375 0 23.09375 0 L 14.28125 0 L 13.671875 -3.046875 L 9.71875 -3.046875 L 9.125 0 L 0.296875 0 L 6.53125 -21.28125 Z M 10.640625 -7.90625 L 12.765625 -7.90625 L 11.703125 -13.375 Z M 10.640625 -7.90625 "/></g></g></g></svg>